<?xml version="1.0" encoding="utf-8"?>
<!-- Generator: Adobe Illustrator 16.0.0, SVG Export Plug-In . SVG Version: 6.00 Build 0)  -->
<!DOCTYPE svg PUBLIC "-//W3C//DTD SVG 1.1//EN" "http://www.w3.org/Graphics/SVG/1.1/DTD/svg11.dtd">
<svg version="1.1" id="Layer_1" xmlns="http://www.w3.org/2000/svg" xmlns:xlink="http://www.w3.org/1999/xlink" x="0px" y="0px"
	 width="504.988px" height="504.988px" viewBox="0 0 504.988 504.988" enable-background="new 0 0 504.988 504.988"
	 xml:space="preserve">
<rect x="3.5" y="3.5" fill="#323434" width="497.988" height="497.988"/>
<g>
	<defs>
		<rect id="SVGID_1_" x="3.499" y="3.5" width="497.989" height="497.988"/>
	</defs>
	<clipPath id="SVGID_2_">
		<use xlink:href="#SVGID_1_"  overflow="visible"/>
	</clipPath>
	<path clip-path="url(#SVGID_2_)" fill="#FFFFFF" d="M343.012,258.109v-23.94h-7.791c0.568-5.27,1.17-10.041,7.131-11.015v-24.876
		c0.455-0.04,1.681-0.265,2.901-0.236c10.478,0.254,21.114-0.503,31.397,1.061c21.168,3.218,31.221,26.675,19.968,44.978
		c-4.39,7.142-11.1,11.467-19.1,12.346C366.336,257.656,355.011,257.588,343.012,258.109 M374.668,223.112
		c-0.701,9.092-2.363,10.693-10.878,10.732c-1.768,0.008-3.535,0.001-5.409,0.001v12.133c9.085,0.08,18.278,1.824,23.909-7.646
		c4.073-6.849,3.532-17.203-1.381-23.109c-6.136-7.376-14.447-5.88-22.491-5.671v13.56H374.668z"/>
	<path clip-path="url(#SVGID_2_)" fill="#FFFFFF" d="M273.855,198.034c2.789,0,5.609-0.024,8.43,0.005c5.732,0.059,7.516,1.678,7.585,7.375
		c0.11,9.324-0.022,18.65,0.088,27.974c0.029,2.468,0.274,5.011,0.934,7.376c1.11,3.97,3.742,5.451,8.469,5.327
		c4.358-0.115,6.835-1.677,7.749-5.61c0.67-2.883,0.896-5.919,0.926-8.89c0.103-10.963,0.041-21.929,0.041-33.228h14.497
		c0.116,1.096,0.361,2.353,0.364,3.609c0.022,11.324,0.006,22.647-0.007,33.97c-0.001,0.999-0.004,2-0.073,2.996
		c-0.938,13.255-7.377,19.479-20.705,19.975c-2.161,0.08-4.33,0.076-6.491-0.007c-13.465-0.517-20.106-7.046-20.529-20.586
		c-0.269-8.651,0.018-17.318-0.176-25.973C274.852,207.724,274.262,203.113,273.855,198.034"/>
	<path clip-path="url(#SVGID_2_)" fill="#FFFFFF" d="M121.071,221.236c3.445-0.132,4.911-2.256,6.121-4.719c1.905-3.878,3.93-7.703,5.706-11.64
		c2.169-4.808,5.714-7.124,11.013-6.87c2.647,0.128,5.307,0.023,8.997,0.023c-5.785,9.611-11.203,18.612-16.826,27.952
		c6.053,10.173,12.129,20.383,18.204,30.594c-0.174,0.4-0.349,0.8-0.524,1.201c-4.53-0.249-9.083-0.303-13.585-0.812
		c-3.293-0.372-5.037-2.934-6.337-5.772c-2.284-4.985-4.581-9.963-6.91-14.927c-1.071-2.281-2.209-4.55-5.928-4.258v25.154h-14.784
		c-1.213-19.658,1.163-39.289-1.543-59.131c2.765,0,5.742-0.037,8.716,0.008c5.144,0.078,6.946,1.61,7.264,6.741
		c0.258,4.145,0.061,8.318,0.113,12.478C120.785,218.541,120.959,219.819,121.071,221.236"/>
	<path clip-path="url(#SVGID_2_)" fill="#FFFFFF" d="M186.285,209.231v13.752h16.463c-0.164,8.713-2.236,10.823-10.244,10.86
		c-1.957,0.009-3.914,0.001-6.171,0.001v11.986h21.932c0.94,8.109-1.907,11.683-9.435,11.785c-8.959,0.123-17.92,0.03-27.45,0.03
		v-23.474h-7.767c1.028-8.395,1.048-8.425,7.665-11.628v-24.537h37.64c-0.529,2.235-0.918,4.653-1.69,6.942
		c-1.136,3.378-4.055,4.195-7.203,4.259C195.569,209.3,191.108,209.231,186.285,209.231"/>
	<path clip-path="url(#SVGID_2_)" fill="#FFFFFF" d="M224.299,198.043c3.322,0,6.8,0.017,10.278-0.005c3.418-0.021,5.233,1.81,5.732,5.031
		c0.253,1.634,0.357,3.306,0.362,4.96c0.031,10.651,0.016,21.301,0.016,31.951v5.939h22.978c0.497,9.512-1.453,11.694-10.107,11.725
		c-9.123,0.032-18.244,0.007-27.865,0.007c-0.12-2.218-0.287-3.982-0.298-5.75c-0.092-13.81-0.1-27.62-0.262-41.428
		C225.085,206.522,224.615,202.577,224.299,198.043"/>
	<path clip-path="url(#SVGID_2_)" fill="#FFFFFF" d="M266.406,296.244c0.729-2.8,1.456-5.6,2.389-9.195c-1.33-0.719-2.593-1.401-3.854-2.084
		c0.179-0.272,0.358-0.545,0.54-0.817c2.275,0.288,4.552,0.576,7.015,0.889c1.395,5.455-2.101,9.185-4.614,13.97
		c4.156,2.489,8.325,4.984,12.606,7.549c-6.078,0.684-11.84,0.261-16.945-3.806c-4.944,3.621-10.265,5.391-16.405,4.365
		c-4.95-0.826-8.981-2.915-10.699-7.776c-1.865-5.275,0.075-9.776,3.942-13.532c1.065-1.035,2.253-1.942,3.621-3.109
		c-2.203-4.756-4.049-9.823,0.753-14.01c5-4.36,10.807-4.354,16.958-2.071v7.308c-1.848-3.118-3.538-5.959-7.603-6.173
		c-4.725-0.249-7.677,2.906-6.564,7.521c0.455,1.884,1.273,3.899,2.523,5.333c4.78,5.483,9.803,10.754,14.735,16.104
		C265.337,296.553,265.872,296.398,266.406,296.244 M245.635,284.993c-4.712,6.046-4.543,12.314,0.021,16.448
		c4.243,3.846,10.57,3.454,14.59-0.582c-2.349-2.55-4.699-5.096-7.047-7.646C250.75,290.555,248.304,287.893,245.635,284.993"/>

		<line clip-path="url(#SVGID_2_)" fill="none" stroke="#FFFFFF" stroke-width="2.5" stroke-miterlimit="10" x1="399.168" y1="270.791" x2="266.764" y2="270.791"/>

		<line clip-path="url(#SVGID_2_)" fill="none" stroke="#FFFFFF" stroke-width="2.5" stroke-miterlimit="10" x1="238.167" y1="270.791" x2="105.764" y2="270.791"/>
	<path clip-path="url(#SVGID_2_)" fill="#FFFFFF" d="M106.261,281.049h4.95c1.762,6.009,3.462,11.806,5.161,17.604
		c0.37,0.029,0.741,0.06,1.112,0.09c2.228-5.767,4.457-11.533,7.174-18.564c2.869,6.783,5.314,12.568,7.759,18.353
		c0.358,0.023,0.715,0.048,1.073,0.071c1.692-5.72,3.383-11.439,5.177-17.502h2.901c-2.995,8.719-5.929,17.256-8.862,25.793
		c-0.338,0.079-0.675,0.159-1.013,0.238c-2.495-5.83-4.99-11.66-7.919-18.508c-2.78,6.852-5.186,12.786-7.593,18.721
		c-0.34-0.048-0.68-0.097-1.021-0.146C112.231,298.59,109.301,289.982,106.261,281.049"/>
	<path clip-path="url(#SVGID_2_)" fill="#FFFFFF" d="M200.813,307.453v-22.435c4.306,0.245,9.046,0.147,13.656,0.873
		c5.717,0.9,8.487,4.51,8.533,9.938c0.048,5.516-2.973,9.957-8.321,10.881C210.329,307.463,205.805,307.226,200.813,307.453
		 M205.81,304.894c5.24,1.72,9.159,0.98,11.353-1.854c2.309-2.983,2.295-8.844-0.03-12.189c-2.261-3.255-6.601-4.503-11.323-3.281
		V304.894z"/>
	<path clip-path="url(#SVGID_2_)" fill="#FFFFFF" d="M156.659,284.97c7.392,0.075,12.172,4.415,12.084,10.972
		c-0.092,6.752-5.661,11.859-12.843,11.775c-7.155-0.083-12.175-5.026-11.996-11.811C144.08,289.246,149.156,284.894,156.659,284.97
		 M164.149,296.002c-0.113-0.556-0.257-2.234-0.811-3.768c-1.505-4.171-4.744-6.154-8.869-5.652
		c-3.647,0.444-5.696,2.697-6.148,7.271c-0.175,1.766,0.046,3.666,0.519,5.385c1.284,4.661,4.974,7.287,9.143,6.785
		C161.83,305.56,164.061,302.325,164.149,296.002"/>
	<path clip-path="url(#SVGID_2_)" fill="#FFFFFF" d="M341.177,307.718c-7.125,0.106-12.377-4.771-12.357-11.477
		c0.018-6.525,4.896-11.127,11.945-11.269c7.827-0.156,12.797,3.931,12.927,10.631C353.822,302.328,348.363,307.612,341.177,307.718
		 M349.11,296.153c-0.049-0.38-0.071-1.562-0.356-2.679c-1.198-4.696-4.643-7.312-9.017-6.94c-4.141,0.352-6.496,3.284-6.636,8.474
		c-0.033,1.303,0.205,2.655,0.557,3.919c1.357,4.913,5.138,7.703,9.431,7.081C346.861,305.459,349.08,302.116,349.11,296.153"/>
	<path clip-path="url(#SVGID_2_)" fill="#FFFFFF" d="M196.215,296.002c-0.096,6.964-5.434,11.872-12.739,11.715
		c-6.777-0.146-12.088-5.133-12.117-11.381c-0.032-6.679,5.45-11.469,13.01-11.365C191.917,285.075,196.308,289.164,196.215,296.002
		 M175.907,294.962c-0.152,6.228,3.307,10.794,8.386,11.07c4.633,0.252,7.54-3.198,7.637-9.064
		c0.098-5.88-3.471-10.305-8.445-10.471C178.717,286.338,176.045,289.323,175.907,294.962"/>
	<path clip-path="url(#SVGID_2_)" fill="#FFFFFF" d="M375.221,285.275h2.895v21.474c-0.469,0.232-0.938,0.466-1.405,0.698
		c-5.289-5.003-10.579-10.006-16.747-15.84c0.29,5.664,0.523,10.196,0.777,15.158c-0.757,0.039-1.923,0.099-2.714,0.139v-21.435
		c0.359-0.168,0.721-0.336,1.082-0.504c5.233,5.188,10.468,10.376,15.702,15.564c0.377-0.082,0.753-0.165,1.129-0.247
		C375.705,295.402,375.471,290.52,375.221,285.275"/>
	<path clip-path="url(#SVGID_2_)" fill="#FFFFFF" d="M301.235,301.544c-0.779-1.162-1.589-2.567-2.601-3.811c-0.723-0.888-1.725-1.545-2.589-2.323
		c-4.693-4.218-5.966-7.291-4.399-10.594c1.573-3.317,5.062-4.32,11.854-3.21c0.138,1.269,0.29,2.656,0.481,4.423
		c-3.694-3.6-3.694-3.6-8.147-2.735c-2.083,2.1-1.511,4.154,0.368,6.01c1.413,1.395,3.062,2.548,4.523,3.896
		c3.78,3.486,4.769,7.154,2.928,10.584c-1.619,3.02-5.69,4.605-10.027,3.821c-0.958-0.174-1.866-0.632-3.103-1.066
		c-0.107-1.393-0.22-2.815-0.333-4.272c1.999,1.343,3.652,3.065,5.637,3.632C298.343,306.615,300.271,305.149,301.235,301.544"/>
	<path clip-path="url(#SVGID_2_)" fill="#FFFFFF" d="M398.771,285.394c-0.096,1.069-0.15,1.692-0.203,2.29c-2.405-0.342-4.627-0.658-7.316-1.041
		v7.838h6.555v2.606c-2.123-0.328-4.136-0.64-6.594-1.021v9.455c2.829-0.188,5.455-0.36,8.171-0.541
		c-0.115,0.325-0.424,1.188-0.715,2.001h-12.39v-21.588H398.771z"/>
	<path clip-path="url(#SVGID_2_)" fill="#FFFFFF" d="M315.025,286.726c-2.887,0.365-5.136,0.65-7.562,0.958v-2.097
		c6.679,0,13.095-0.012,19.51,0.073c0.169,0.002,0.323,1.069,0.568,1.931c-2.704-0.234-5.068-0.439-7.803-0.677v19.895h-4.713
		V286.726z"/>
</g>
<g>
	<defs>
		<rect id="SVGID_3_" width="504.988" height="504.988"/>
	</defs>
	<clipPath id="SVGID_4_">
		<use xlink:href="#SVGID_3_"  overflow="visible"/>
	</clipPath>

		<rect x="3.5" y="3.5" clip-path="url(#SVGID_4_)" fill="none" stroke="#323434" stroke-width="7" stroke-miterlimit="10" width="497.988" height="497.988"/>
</g>
</svg>
