<?xml version="1.0" encoding="utf-8"?>
<!-- Generator: Adobe Illustrator 16.0.0, SVG Export Plug-In . SVG Version: 6.00 Build 0)  -->
<!DOCTYPE svg PUBLIC "-//W3C//DTD SVG 1.1//EN" "http://www.w3.org/Graphics/SVG/1.1/DTD/svg11.dtd">
<svg version="1.1" id="Layer_1" xmlns="http://www.w3.org/2000/svg" xmlns:xlink="http://www.w3.org/1999/xlink" x="0px" y="0px"
	 width="296.609px" height="60.982px" viewBox="0 0 296.609 60.982" enable-background="new 0 0 296.609 60.982"
	 xml:space="preserve">
<path fill="#201600" d="M238.337,60.121V36.18h-7.791c0.568-5.27,1.17-10.041,7.131-11.015V0.289
	c0.455-0.04,1.681-0.265,2.901-0.236c10.478,0.254,21.114-0.503,31.397,1.061c21.168,3.218,31.221,26.675,19.968,44.978
	c-4.39,7.143-11.1,11.467-19.1,12.346C261.661,59.668,250.336,59.6,238.337,60.121 M269.993,25.124
	c-0.701,9.093-2.363,10.692-10.878,10.731c-1.768,0.009-3.535,0.002-5.409,0.002V47.99c9.085,0.08,18.278,1.824,23.909-7.646
	c4.073-6.849,3.532-17.203-1.381-23.108c-6.136-7.376-14.447-5.88-22.491-5.671v13.56H269.993z"/>
<path fill="#201600" d="M169.181,0.045c2.789,0,5.609-0.024,8.43,0.005c5.732,0.059,7.516,1.678,7.585,7.375
	c0.11,9.324-0.022,18.65,0.088,27.974c0.029,2.468,0.274,5.011,0.934,7.376c1.11,3.971,3.742,5.451,8.469,5.327
	c4.358-0.115,6.835-1.677,7.749-5.61c0.67-2.883,0.896-5.918,0.926-8.89c0.103-10.963,0.041-21.929,0.041-33.228h14.497
	c0.116,1.096,0.361,2.353,0.364,3.609c0.022,11.324,0.006,22.647-0.007,33.97c-0.001,1-0.004,2-0.073,2.996
	c-0.938,13.256-7.377,19.479-20.705,19.975c-2.161,0.08-4.33,0.076-6.491-0.006c-13.465-0.518-20.106-7.047-20.529-20.586
	c-0.269-8.651,0.018-17.318-0.176-25.974C170.177,9.735,169.587,5.125,169.181,0.045"/>
<path fill="#201600" d="M16.396,23.248c3.445-0.132,4.911-2.256,6.121-4.719c1.905-3.878,3.93-7.703,5.706-11.64
	c2.169-4.808,5.714-7.124,11.013-6.87c2.647,0.128,5.307,0.023,8.997,0.023C42.448,9.653,37.03,18.654,31.407,27.994
	c6.053,10.173,12.129,20.383,18.204,30.594c-0.174,0.4-0.349,0.801-0.524,1.201c-4.53-0.248-9.083-0.303-13.585-0.812
	c-3.293-0.371-5.037-2.934-6.337-5.771c-2.284-4.984-4.581-9.963-6.91-14.927c-1.071-2.281-2.209-4.55-5.928-4.259v25.154H1.543
	C0.33,39.516,2.706,19.885,0,0.043c2.765,0,5.742-0.037,8.716,0.008c5.144,0.078,6.946,1.61,7.264,6.741
	c0.258,4.145,0.061,8.318,0.113,12.478C16.11,20.552,16.284,21.831,16.396,23.248"/>
<path fill="#201600" d="M81.61,11.243v13.752h16.463c-0.164,8.714-2.236,10.823-10.244,10.86c-1.957,0.009-3.914,0.001-6.171,0.001
	v11.985h21.932c0.94,8.109-1.907,11.684-9.435,11.785c-8.959,0.123-17.92,0.031-27.45,0.031V36.184h-7.767
	c1.028-8.394,1.048-8.424,7.665-11.627V0.02h37.64c-0.529,2.235-0.918,4.653-1.69,6.942c-1.136,3.378-4.055,4.195-7.203,4.259
	C90.894,11.312,86.433,11.243,81.61,11.243"/>
<path fill="#201600" d="M119.625,0.055c3.322,0,6.8,0.017,10.278-0.005c3.418-0.021,5.233,1.81,5.732,5.031
	c0.253,1.634,0.357,3.306,0.362,4.96c0.031,10.651,0.016,21.301,0.016,31.951v5.938h22.978c0.497,9.513-1.453,11.694-10.107,11.726
	c-9.123,0.031-18.244,0.006-27.865,0.006c-0.12-2.217-0.287-3.982-0.298-5.75c-0.092-13.809-0.1-27.619-0.262-41.427
	C120.411,8.534,119.94,4.589,119.625,0.055"/>
</svg>
