<?xml version="1.0" encoding="utf-8"?>
<!-- Generator: Adobe Illustrator 21.0.0, SVG Export Plug-In . SVG Version: 6.00 Build 0)  -->
<svg version="1.1" id="Layer_1" xmlns="http://www.w3.org/2000/svg" xmlns:xlink="http://www.w3.org/1999/xlink" x="0px" y="0px"
	 viewBox="0 0 797.6 415.9" style="enable-background:new 0 0 797.6 415.9;" xml:space="preserve">
<style type="text/css">
	.st0{fill:#F4F0D9;}
</style>
<g>
	<polygon class="st0" points="389.8,129 389.7,130.5 389.7,130.7 389.9,130.9 390.9,131.6 391.4,131.9 391.6,131.4 392.2,130.2 
		392.4,129.8 392.1,129.6 390.5,128.6 389.8,128.1 	"/>
	<polygon class="st0" points="391.5,127.9 391.6,128.1 391.7,128.2 392.8,129 393.3,129.4 393.5,128.9 394.6,127.4 394.9,127 
		394.5,126.7 392.8,125.4 392.5,125.2 392.2,125.4 391.2,126.1 390.9,126.3 391.1,126.7 	"/>
	<polygon class="st0" points="388.5,133.2 387.9,132.6 387.6,133.4 387.1,135.3 387,135.6 387.3,135.8 388.3,136.5 388.7,136.9 
		389,136.4 389.7,135.1 389.8,134.8 389.6,134.5 	"/>
	<polygon class="st0" points="407.9,100.9 407.9,101.2 408.1,101.3 410.5,102.6 411.2,102.9 411.2,102.2 411.4,100.3 411.4,100.1 
		411.3,100 409.7,98.2 409.4,97.8 409,98.1 407.9,99.1 407.7,99.3 407.7,99.5 	"/>
	<polygon class="st0" points="387.6,111.4 387.4,111.7 387,112.8 386.9,113.1 387,113.3 388,114.7 388.4,115.2 388.8,114.8 
		389.9,113.6 390,113.5 390,113.3 390.1,112 390.1,111.6 389.6,111.5 387.9,111.4 	"/>
	<polygon class="st0" points="394.2,53.7 394.2,54 394.6,54.1 396.6,54.8 396.8,54.8 396.9,54.8 399.2,54.2 399.7,54 399.5,53.5 
		398.2,50.5 398.1,50.4 398,50.4 396.3,49 396,48.8 395.7,49 394.5,50.2 394.4,50.3 394.4,50.5 394.1,52.3 394.1,52.4 394.1,52.4 	
		"/>
	<polygon class="st0" points="367.4,45.6 367.2,45.9 366.7,47.1 366.6,47.2 366.7,47.4 367.2,49.6 367.3,50 367.7,50 371.9,49.9 
		372.2,49.9 372.3,49.6 374,46.8 374.2,46.6 374,46.3 372.6,44 372.2,43.3 371.8,43.9 370.2,46.3 367.8,45.7 	"/>
	<polygon class="st0" points="372,40.2 372.2,40.7 372.7,40.5 374.5,39.8 374.9,39.7 374.8,39.2 374.1,36.9 373.9,36.3 373.4,36.6 
		371.6,37.7 371.3,37.9 371.4,38.3 	"/>
	<polygon class="st0" points="371.1,141.4 370.9,141.3 369.3,140.5 368.9,140.3 368.7,140.6 366.9,143.3 366.8,143.6 367,143.8 
		369.2,146.7 369.4,147 369.8,146.9 371.3,146.2 371.6,146.1 371.6,145.7 371.1,141.7 	"/>
	<polygon class="st0" points="366.3,47.8 366.2,47.4 365.4,45 365.3,44.8 365.1,44.7 362.2,43.5 361.9,43.4 361.7,43.5 359.1,45.7 
		359,45.8 359,46 358.9,47.7 358.8,48 359,48.1 361.1,50.1 361.4,50.3 361.7,50.1 365.9,48 	"/>
	<polygon class="st0" points="363.8,144 363.3,144.3 360.6,145.8 360.5,145.9 360.4,146 359.6,147.4 359.4,147.9 359.9,148.1 
		362.1,148.9 362.2,149 362.3,148.9 364.5,148.5 365.1,148.4 364.9,147.9 364,144.6 	"/>
	<polygon class="st0" points="386.1,131.4 385.9,131.4 384.3,130.9 383.9,130.9 383.8,131.2 382.8,133 382.6,133.3 382.8,133.6 
		384.7,135.3 385,135.6 386.6,134.1 386.7,133.9 386.7,133.6 386.2,131.7 	"/>
	<polygon class="st0" points="383.5,118.8 383.5,118.9 383.6,118.9 384.9,119.8 385.1,119.9 385.4,119.8 387.3,118.6 387.7,118.4 
		387.4,118 386.4,116.1 386.3,115.9 386.1,115.9 384.5,115.4 384.2,115.3 384,115.5 382.5,116.8 382.1,117.2 382.4,117.5 	"/>
	<polygon class="st0" points="385.8,69 385.9,69.1 386.1,69.1 388.3,69.2 388.9,69.2 388.8,68.7 388.7,66.7 388.7,66.6 388.6,66.4 
		387.1,64.4 386.9,64.1 386.5,64.3 384.6,65.1 384.4,65.2 384.4,65.5 384.1,67 384,67.2 384.2,67.4 	"/>
	<polygon class="st0" points="373.4,123.4 373.3,123.7 373.1,125.1 373,125.3 373.2,125.5 374.3,126.9 374.7,127.4 375,127 
		376.3,125.7 376.4,125.5 376.4,125.2 375.8,123.2 375.7,122.7 375.2,122.9 373.7,123.3 	"/>
	<polygon class="st0" points="475.3,129 475.1,129.3 474,132.3 473.8,132.6 474.1,132.8 477.1,135.2 477.5,135.5 477.8,135.1 
		479.2,132.9 479.3,132.8 479.3,132.8 479.7,131 479.8,130.6 479.5,130.4 477.8,129.4 477.8,129.3 477.7,129.3 475.7,129 	"/>
	<polygon class="st0" points="538.6,92.2 538.6,92.3 538.7,92.4 540.7,95 541.5,97.8 541.5,98.1 541.8,98.2 546.1,99.4 546.2,99.4 
		546.2,99.4 550.2,99.1 550.7,99 550.6,98.6 550.4,95 552.6,95.2 552.9,95.3 553.1,95 555.1,91.7 557.4,92.1 557.7,92.2 557.9,92 
		559.6,90 559.9,89.7 559.6,89.4 557.9,87.6 557.8,87.5 557.7,87.5 553.9,86.4 551.5,83.5 552.9,83.1 555,86.3 555.1,86.5 
		555.3,86.5 559.6,87.4 560.2,87.5 560.2,87 560.3,82 560.3,81.9 560.2,81.8 558.8,79.3 558.7,79.1 558.4,79.1 553.4,78.8 
		553.2,78.8 553.1,78.9 550.6,80.6 546.7,80 546.2,79.9 546.2,80.4 545.8,83.2 545.8,83.4 546,83.5 548.1,85.8 547.4,86.6 
		543.9,83.7 543.7,83.6 543.5,83.6 538.9,84 538.5,84.1 538.5,84.5 538.1,88.2 538.1,88.3 538.1,88.3 	"/>
	<polygon class="st0" points="559.6,64.6 560,64.7 560.2,64.3 560.9,62.2 561.1,61.7 560.7,61.6 558.6,60.8 558.1,60.6 557.9,61.1 
		557.3,63.5 557.1,64 557.6,64.1 	"/>
	<polygon class="st0" points="557.3,98 557,98.4 555.6,99.7 555.5,99.9 555.5,100.1 556.4,104.2 556.5,104.6 559.4,104.6 
		559.4,104.1 559.9,100.5 559.9,100.3 559.7,100.1 557.6,98.3 	"/>
	<polygon class="st0" points="560.1,103.2 560.1,108.6 560.7,108.5 565.9,107.4 565.9,107.4 566,107.4 570.8,104.8 571.2,104.6 
		571,104.2 569.4,100.5 569.3,100.2 569,100.2 565.8,99.8 563.4,99.2 563.1,99.1 562.9,99.4 561.2,102 560.2,103.1 	"/>
	<polygon class="st0" points="548.2,108.6 547.8,108.5 542.8,107.9 541.9,107.8 542.2,108.6 543.2,110.9 543.3,111 543.4,111.1 
		545.7,112.5 545.9,112.6 546.1,112.6 548.1,112 548.5,111.9 548.4,111.5 548.2,109 	"/>
	<polygon class="st0" points="563.3,81.2 563.5,81.5 563.8,81.5 573.7,81.6 574,81.6 574.1,81.4 576.9,76.1 577.1,75.9 577,75.7 
		575.1,71.6 574.8,70.9 574.3,71.5 572.4,73.6 568.5,73.3 568.2,73.3 568.1,73.5 567.1,75.1 564.8,75.1 564.7,75.6 564.5,77.3 
		562.3,77.2 561.5,77.2 561.8,77.9 	"/>
	<polygon class="st0" points="666.2,27.2 666.5,27.6 666.9,27.2 668.1,26 668.2,25.9 668.3,25.7 669.8,18.1 671.6,14.6 671.7,14.3 
		671.6,14.1 669.5,11.3 669.4,11.1 669.1,11.1 664,11.5 663.7,11.5 663.6,11.7 660.5,16.4 660.4,16.5 660.4,20.4 660.6,20.5 	"/>
	<polygon class="st0" points="632.3,85.9 632.5,86.1 632.8,85.9 634.6,84.8 635,84.7 634.9,84.3 634.2,82 634.1,81.6 633.6,81.6 
		631.5,82.1 631.2,82.1 631.1,82.4 630.4,84.3 630.3,84.6 630.6,84.8 	"/>
	<polygon class="st0" points="534,94.9 534,95 534.1,95.1 536.7,98.1 536.9,98.4 537.3,98.3 538.9,97.6 539.4,97.4 539.2,96.9 
		537.2,93.3 537.1,93.2 537,93.1 534,91.4 533.1,90.8 533.3,91.9 	"/>
	<polygon class="st0" points="426.7,105.5 427,105.3 428.4,104.5 428.8,104.3 428.6,103.9 427.6,101.9 427.4,101.4 426.9,101.7 
		424.6,103.1 424,103.5 424.6,103.9 426.5,105.3 	"/>
	<polygon class="st0" points="415.9,70.4 415.9,70.6 416.1,70.7 419.5,73.1 419.7,73.2 420,73.1 422.4,71.8 422.5,71.7 422.6,71.5 
		423.3,69.1 423.4,68.7 423.5,68.8 423.8,68.6 430.5,65.6 430.8,65.5 430.8,63 433.2,61.6 433.6,61.4 433.4,61 432.4,59 430.8,54.4 
		430.8,54.2 430.7,54.2 427.7,51.6 427.4,51.3 427.1,51.6 424.5,54.1 421.9,55.8 421.7,56 421.7,56.3 422.3,59.3 419.8,62.7 
		419.7,62.8 419.7,65.3 419.9,65.5 423.3,68.6 423.3,68.6 423,68.5 417.9,66.5 417.7,66.4 417.5,66.6 415.6,67.6 415.2,67.8 
		415.3,68.2 	"/>
	<polygon class="st0" points="420.9,55.2 421.7,55.3 421.5,54.5 420.3,50.9 420.2,50.5 419.8,50.5 416.4,50.6 416,50.6 416,51 
		415.6,53.7 415.6,54.2 416,54.3 	"/>
	<polygon class="st0" points="433.4,68.3 433.2,69.9 432.3,70.1 431.3,66.3 431.2,65.7 430.6,66 424.4,69.1 424.2,69.2 424.1,69.3 
		421.8,74.9 421.8,75 421.8,75.1 421.7,76.9 421.7,77.2 422,77.4 424.3,78.4 428.4,81.9 428.4,81.9 428.5,82 433.1,85.1 433.3,85.3 
		433.6,85.2 435.9,83.9 436.1,83.8 436.1,83.6 436.6,80.4 436.7,80.2 436.5,80 434.9,78.2 436.9,75.1 436.9,74.9 436.9,74.8 
		437.2,71.2 437.2,70.9 437,70.8 434.2,68 433.5,67.3 	"/>
	<polygon class="st0" points="423.6,106.4 423.2,107 422.4,108.7 422.6,109 423.5,110 423.8,110.3 424.2,110 425.3,108.9 
		425.7,108.6 425.3,108.2 424,106.9 	"/>
	<polygon class="st0" points="367.6,42.7 367.3,42.3 365.8,40.9 365.4,40.6 365,41 363.5,42.9 363.1,43.4 363.7,43.6 365.5,44.6 
		365.8,44.7 366.1,44.4 367.3,43 	"/>
	<polygon class="st0" points="452,90.9 452.1,91.2 452.4,91.3 456,92.1 456.6,92.3 456.6,91.6 456.4,90.2 456.4,90 456.2,89.8 
		452.6,87.7 452.1,87.3 451.9,87.9 451.6,88.7 451.6,88.9 451.6,89 	"/>
	<polygon class="st0" points="434.8,90.6 434.9,90.8 435.9,94.6 436.1,95.3 436.7,94.9 441.1,91.3 445.8,91 446,91 448.6,88.3 
		448.7,88.2 448.8,88 449.1,82.1 449.1,82 449,81.8 446.3,78.4 445.9,78 445.6,78.4 443.6,80.3 442.9,79.5 443.1,76.2 443.1,75.3 
		442.3,75.8 438.4,77.9 438.2,78 438.2,78.3 437.6,85.5 434.9,90.4 	"/>
	<polygon class="st0" points="22.3,249.9 15.9,241.5 19.7,230.8 16.5,228.1 14.1,229.8 4.7,223.4 3.2,225.8 3.5,233.2 0,237 
		1.1,242.8 7.3,242.5 14,250.9 19,253.8 19.3,253.5 	"/>
	<polygon class="st0" points="782.9,253.3 782.9,253 782.5,247 782.4,246.9 782.3,246.7 780.6,245.1 780.5,245.1 780.4,245 
		778.5,244.5 778,244.4 777.9,244.9 777.4,251 777.4,251.2 777.5,251.3 779.9,254.4 780.1,254.7 780.5,254.5 782.6,253.5 	"/>
	<polygon class="st0" points="782,257.9 781.4,257.7 781.3,258.3 781,260.5 781,260.7 781,260.8 782,263 782.2,263.5 782.7,263.3 
		785.5,262 785.7,261.9 785.7,261.7 786.1,260.2 786.2,259.8 785.8,259.6 	"/>
	<polygon class="st0" points="781,240.6 780.6,240.3 780.3,240.6 779.4,241.5 779.3,241.6 779.3,241.7 779,243.2 778.9,243.6 
		779.3,243.7 781.4,244.5 781.7,244.7 781.9,244.4 783.1,243.1 783.4,242.8 783,242.5 	"/>
	<polygon class="st0" points="786.2,284.6 786.1,285 785.1,287 785,287.2 785.1,287.4 786.2,289.2 786.4,289.5 786.7,289.4 
		788.2,288.9 788.5,288.8 788.5,288.5 788.9,285.7 788.9,285.3 788.5,285.2 786.6,284.7 	"/>
	<polygon class="st0" points="184.5,116.3 184.3,116.2 183.3,115.4 182.9,115.1 182.6,115.5 181.8,116.6 181.7,116.7 181.7,116.9 
		181.6,117.9 181.5,118.2 181.7,118.3 182.7,119.4 183,119.7 183.3,119.5 184.7,118.6 185,118.4 184.9,118.1 184.5,116.5 	"/>
	<polygon class="st0" points="775.8,242.7 775.4,242.9 773.3,244.3 773,244.5 773.1,244.8 773.4,246.3 773.4,246.5 773.6,246.7 
		775.5,247.9 776,248.2 776.3,247.7 777.2,245.3 777.3,245.1 777.2,244.9 776.1,243.1 	"/>
	<polygon class="st0" points="472.5,136.2 472.1,136.2 470,136.1 469.8,136.1 469.6,136.3 468.4,138.1 468.4,138.2 468.4,138.3 
		468.1,139.4 468,139.6 468.2,139.8 469.1,141 469.4,141.4 469.8,141.1 473.1,139.1 473.5,138.9 473.3,138.5 472.6,136.5 	"/>
	<polygon class="st0" points="744.5,145.4 744.4,145.3 742.5,145 742.1,145 742,145.4 740.4,149.9 740.3,150.2 740.5,150.4 
		746.3,156.9 747.1,157.8 747.2,156.6 748,147.3 748,146.9 747.7,146.8 	"/>
	<polygon class="st0" points="787,276 786.9,275.7 786.6,275.7 785.4,275.5 785.1,275.5 784.9,275.8 783.9,277.8 783.8,278 
		783.9,278.3 785.5,280.5 785.8,281 786.2,280.6 788.1,278.8 788.4,278.5 788.2,278.2 	"/>
	<polygon class="st0" points="789.2,161.9 789.1,161.7 788.9,161.7 784.6,161.2 784.5,161.2 784.4,161.2 780.5,162.1 779.8,162.3 
		780.2,162.8 781.7,165.2 781.8,165.4 782,165.4 787.8,166.3 788,166.3 788.1,166.3 790.5,165 790.9,164.8 790.7,164.4 	"/>
	<polygon class="st0" points="773.8,339.8 773.6,339.6 773.3,339.8 771.4,340.7 771.4,340.7 771.3,340.7 770.3,341.5 770,341.8 
		770.1,342.1 771,345 770.7,348.7 770.7,348.8 770.7,348.9 771.6,351.5 771.8,352 772.3,351.7 773.2,351.3 773.5,351.2 773.5,350.9 
		773.9,344.3 774.9,343.1 775,343 775,342.8 775.3,341.1 775.3,340.7 775,340.6 	"/>
	<polygon class="st0" points="796.6,157.3 794.9,156.9 794.8,156.9 794.6,156.9 790.4,158.6 789.7,158.8 790.2,159.4 792.2,161.4 
		792.5,161.7 792.9,161.4 796.9,158.2 797.6,157.6 	"/>
	<polygon class="st0" points="789.4,292.1 789.3,291.9 789.1,291.8 787,291.2 786.7,291.1 786.5,291.4 784.9,293 784.7,293.2 
		784.8,293.5 786,296.8 786.2,297.2 786.6,297.1 790.3,296.2 790.8,296 790.6,295.5 	"/>
	<polygon class="st0" points="780.5,325.3 780.5,325.3 781.9,323.2 782,323 781.9,322.8 781.3,320.3 781.2,319.9 780.9,319.9 
		779,319.8 778.4,319.8 778.5,320.3 778.6,322.1 777.5,323 777.5,323.1 777.5,323.1 775.1,325.5 775,325.6 775,325.9 775.2,331.7 
		775.2,331.7 775.2,331.7 775.9,336.4 775.9,336.6 776.1,336.8 777,337.2 777.6,337.5 777.7,336.8 778,334.1 778.6,330.6 
		778.6,330.5 778.7,327.8 	"/>
	<polygon class="st0" points="781.8,343.2 781.8,343 781.8,343 780.7,341.5 780.4,341 780,341.4 778.9,342.4 778.8,342.6 
		778.8,342.8 778.7,344.5 778.7,344.6 778.8,344.7 779.4,346.1 779.6,346.6 780,346.4 781.9,345.7 782.3,345.6 782.2,345.2 	"/>
	<polygon class="st0" points="786.5,307.9 786.4,307.7 786.4,307.6 784.8,305.1 784.5,304.6 784.1,305 782.3,306.9 782.1,307 
		782.1,307.2 782.2,311 782.3,315 782.3,315 782.4,316.9 782.4,317.3 785.1,317.3 785.2,317 786.8,312.5 786.8,312.4 786.8,312.3 	
		"/>
	<polygon class="st0" points="294,138.8 293.5,138.9 289.8,139.8 289.5,139.9 289.5,140.2 288.9,143.7 288.8,143.9 288.9,144 
		291.2,147.8 291.4,148.1 291.7,148.1 294.6,147.8 295,147.7 295,147.3 295.2,143.3 295.2,143.2 295.2,143.2 294.1,139.2 	"/>
	<polygon class="st0" points="350.6,38.2 350.1,39 349.5,40 349.4,40.2 349.4,40.4 349.9,42.1 350,42.8 350.6,42.4 351.7,41.6 
		352.1,41.3 351.9,41 351,39.1 	"/>
	<polygon class="st0" points="350.8,44.7 350.7,44.9 349.6,46.5 349.4,46.8 349.7,47.1 351.3,48.6 351.6,48.9 352,48.6 353.6,47.2 
		353.2,47.8 352.9,48.1 353.3,48.4 354.5,49.5 354.7,49.7 355,49.5 357.1,48.4 357.3,48.3 357.4,48.1 358,45.6 358.1,45.1 357.6,45 
		356,44.6 355.7,44.5 355.5,44.7 354.4,46.2 354.3,46.1 353.2,44.5 353,44.2 352.6,44.3 351,44.7 	"/>
	<polygon class="st0" points="355.4,135.4 355.1,135.5 353.6,135.9 353.2,136.1 353.3,136.5 353.8,138.4 353.9,138.7 354.2,138.8 
		356.1,139 356.5,139 356.6,138.6 356.9,137.4 357,137.1 356.8,136.9 355.6,135.6 	"/>
	<polygon class="st0" points="349,32.8 349.4,33.2 349.8,32.8 351.3,31.2 351,30.9 348.9,29.1 348.4,28.6 348.2,29.3 347.7,30.5 
		347.5,30.7 347.7,30.9 	"/>
	<polygon class="st0" points="355.5,41.6 355.6,41.7 355.7,41.7 359.6,43.1 360.1,43.2 360.2,42.7 360.7,39.7 360.8,39.5 
		360.6,39.3 356.7,35.9 356.4,35.6 356.1,35.8 353.1,38 352.6,38.3 353,38.7 	"/>
	<polygon class="st0" points="358,52.9 358.2,52.7 358,52.4 357,50.7 356.7,50.1 356.2,50.6 355.1,52 354.9,52.3 355.1,52.6 
		356.2,54.2 356.6,54.8 357,54.2 	"/>
	<polygon class="st0" points="360.2,36.2 360.2,36.4 360.4,36.5 362.4,37.8 362.8,38.1 363.1,37.7 364.3,35.9 364.5,35.7 
		364.3,35.4 363.2,33.2 363,32.7 362.6,33 360.1,34.2 359.8,34.3 359.9,34.7 	"/>
	<polygon class="st0" points="336.3,29.6 336.3,29.7 336.5,29.8 338.3,31.2 338.4,31.4 338.6,31.3 341.1,31.2 342.5,32.3 
		342.9,32.6 340.8,32.9 340.8,32.9 340.7,32.9 339.5,33.5 336.8,32.7 336.2,32.6 336.2,33.1 336,35.3 335.9,35.5 336.1,35.7 
		338,37.6 339.9,40 340.4,40.5 340.7,39.9 341.3,38.8 341.4,38.6 341.4,38.5 341,36.6 343,36.1 346.2,37.2 346.5,37.3 346.7,37.1 
		348.9,34.9 349.2,34.6 348.9,34.3 346.9,32.1 346.9,32 346.8,31.9 345.1,31.3 344.9,31.2 344.7,31.4 343,32.6 342.9,32.6 
		343.2,32.3 344.2,31.1 344.5,30.7 344.2,30.4 342.1,28.6 341.9,28.4 341.7,28.5 340.1,29 336.4,26.6 335.4,25.9 335.7,27.1 	"/>
	<path class="st0" d="M781.2,239.9l-0.1-1l-1-13.1l0,0l0,0l-1.4-6v-0.1l-0.1-0.1l-4.2-4.2l0.4-6l2.1-1.7l0.4-0.3L777,207l-7.3-8.5
		l0.1-5.6l3-3.3l0.2-0.2l-0.1-0.2l-0.8-3.4l-0.1-0.3l-0.3-0.1l-6.1-1.8l-6.1-10.8l0.8-0.5l1.7,2.4l0.3,0.4l0.4-0.2l3.1-2l0.5-0.3
		l-0.5-0.4l-4.8-4.6l-0.3-0.2l-0.3,0.2l-2.4,1.3l-3.9-2.5l-0.1-0.1v-0.1l-1.9-4.6l-0.1-0.3h-5l-0.1,0.4l-0.4,2.6l-2-0.2l-8.7-17.4
		l0.5-5.1l3.2-0.7l0.5-0.1l-0.1-0.5l-2.3-9.1l4.5,3.6l0.8,0.6v-1l0.1-12.3l4.2-4.3l6.5-0.1h0.7l-0.3-0.7l-3.8-9.2l-1.8-19.9v-0.4
		v-0.1L747,73.2v-0.3l-0.2-0.1l-3.2-1.8l8.6-6l0.3-0.2l-0.1-0.3l-1.3-4.3l-0.1-0.3h-0.3l-17.2-1.4h-0.3l-0.2,0.2l-2,2.6l-4.5,0.4
		h-0.4l-0.1,0.4l-0.5,3.2l-2.9-0.2v-4.3l4-1.3l0.2-0.1l0.1-0.2l1.7-3.5l0.1-0.1v-0.1l-0.9-9.3v-0.3l-0.3-0.1l-1.7-0.7l-0.2-0.1
		l-0.2,0.1L724,46l-0.1-2.6v-0.7l-0.6,0.2l-3.7,1.4l-2.4-2.7l0.8-4l2.8,2.4l0.3,0.3l0.3-0.3l1.6-1.3l2.6,2.8l0.5,0.6l0.3-0.7
		l1.7-3.9v-0.1v-0.1l-0.4-4.4l2.8-2.3l5.3,0.5h0.2l0.2-0.1l9.1-6.9l0.4-0.3l-0.3-0.4l-1.4-1.6l3.3,0.5l0.6,0.1v-0.6l-0.1-4.4v-0.6
		l-0.6,0.1l-4.6,0.8l-1.3-2.8l-0.1-0.2H741l-5.9-1.2l2.1-2.6l0.3-0.4L737,10l-2.8-2l2.6-1.8l0.4-0.3l-0.3-0.4L733,0.3L732.7,0
		l-0.4,0.2l-11.1,6.5L721,6.9v0.2l-0.6,5.2l-2.9,3.8l-0.4,0.5l0.6,0.2l6.4,2.6l-2.9,1.3l-11.8-3.2l-0.2-0.1l-0.2,0.1l-14,9.3
		l-20.9,11.3l-0.1,0.1l-0.1,0.1l-5.6,9.1l-0.1,0.2v0.2l0.4,2.3l-3.4,0.9h-0.1l-0.1,0.1l-5.4,4.8l-0.3,0.3l0.3,0.4l3.8,4.7l0.2,0.3
		l0.3-0.1l3.2-1l4.6,2.6l-0.4,4.4L667,68h-0.1l-0.1,0.1l-2.9,1.7l-6.4-4l-0.7-0.5v9.1l-6.6,4.9l-0.1,0.1l-0.1,0.1l-2.6,5l-0.2,0.4
		V85v0.1l-1.3,2.5l-6.7,3.8l-5-4.7l-0.1-0.1h-0.2l-5.2-0.5h-0.2l-0.1,0.1L621,91h-0.1l-0.1,0.1l-5.1,6.3l-0.1,0.1v0.1l-1.8,6.1
		l-3,0.9l-4-2l-0.1-0.1h-0.1l-4,0.4h-0.2l-0.1,0.2l-1.8,2.3l-1.4-1.2l-0.4-0.3l-0.3,0.3l-1.4,1.5l-1.4-1.3l3.4-3.4l-1.1-0.1l-7-0.5
		h-0.2l-0.2,0.1l-4,3.5l-0.2,0.2l0.1,0.3l2.1,7.3l-3,2.9v-5.2h-3.4l-0.1,0.1l-2.1,1.9l-0.4-1.9l3.8-3.5l1-0.9l-1.4,0.1l-4.3,0.3
		h-0.1h-0.1l-12.8,6.5l-0.5,0.3l0.4,0.5l2.2,2.7l-3.3,3.2l-0.3,0.3l0.2,0.3l1.4,2.6l0.2,0.4l0.4-0.2l2-1l0.2,3.1v0.2l0.1,0.1
		l2.6,3.1l-4.1,1h-0.2l-0.1,0.1l-1.4,2l-0.2,0.2l0.1,0.3l1.1,2.6l-3.2,0.5l-5.1-1.5l-0.5-0.1l-0.1,0.5l-1.4,5.4l-8.4-1.5l-0.6-0.1
		v13.1l-5.6-0.9l-9.1-8.2l3-2.1l0.4-0.3l-0.3-0.4l-5.9-8.7l-0.1-0.1l-0.1-0.1l-3.8-1.8l-0.2-0.1l-0.2,0.1l-5.6,1.9l-6.2-2.4
		l-0.6-0.2l-0.1,0.6l-0.9,9.6l-11.1,4.7l-3.9-2.7l0.6-2l0.2-0.6H497l-11.9-0.1h-0.2l-0.1,0.2l-3.1,4.2l-0.1,0.1v0.1l-0.2,0.8l-0.4-2
		v-0.2l0-0.6l-2.2-2l-0.4-0.3l-0.3,0.3l-2.6,2.7l-3.3,1.6l0,0l-0.2,0.1l-0.2,0.1l-0.3,0.1l-3.4,1.7l0,0l0,0l-3.8,2.9l-5.3,1.5
		l-0.2,0.1l-0.1,0.2l-1.1,2l0.1-3.1l10.7-11.1l0,0v-0.1l6-10.8v-0.1v-0.1l2.7-9.7l0.1-0.3l-0.2-0.2l-8.4-9.5l-0.1-0.2h-0.2l-7.8-0.3
		h-0.3l-0.2,0.2l-2.6,3.7l-2.1,0.4l2.1-5.9l0.2-0.6l-0.6-0.1l-5.6-0.7l1.6-2.3l0.3-0.4l-0.3-0.3l-3.9-3.3l-0.2-0.2l-0.3,0.1L445,97
		l-0.1,0.1l-0.1,0.1l-5.6,8.4l-0.1,0.2l0.1,0.2l1.2,4.4l-5.4,0.4h-0.5v0.5l0.1,1.6v0.1l0.1,0.1l1.5,2.3l-3.1-0.7l-0.2-0.1l-0.2,0.2
		l-2,1.9l-4.4-0.8l-0.6-1.9l-0.1-0.4h-0.4l-7,0.1h-0.5v0.5l0.1,3.6l-8.1,1.1h-0.1l-0.1,0.1l-5.6,4.5l-4.3,0.1h-0.2l-0.1,0.1
		l-3.3,2.9l-0.1,0.1v0.2l-1.4,5.9v0.2l0.1,0.2l2.4,4.4l-3.5,0.9l-11-1.8l0,0l0,0l-6.4-0.1h-0.3l-0.1,0.3l-2,3.5l-0.1,0.1v0.1
		l-0.3,9.1v0.2l0.2,0.1l4,3.8l1.6,3.8h-4.6l-4.7-8.7l-0.1-0.3h-0.3l-3.5,0.2l0,0h-0.2h-0.2l-2.6,0.2h-0.3l-0.1,0.3l-1.1,3.9
		l-3.7-3.4l-0.6-0.5l-0.2,0.7l-1.2,4l-0.1,0.3l0.2,0.2l4.5,4.8l0.2,3l-7.3-6.5l-0.2-4.3l3.4-4.2l0.1-0.1V147l0.5-6.9l0.1-0.8
		l-0.7,0.3l-1.4,0.7l-0.2,0.1l-0.1,0.2l-1.7,4.6l-2.4,2.2l-2.6,0.8h-0.2l-0.1,0.1l-2.6,3.9l-0.1,0.1v0.2l0.1,10.2l-6.3,9.9l-0.1,0.1
		v0.2l0.4,6.1v0.5h6.8l5.1,6.1v5.8l-3.7,4.4l-0.2,0.2l0.1,0.3l1,2.1l0.1,0.1l0.1,0.1l1.9,1.1l-3.9,0.9l-1.4-5.2l4.1-7.1l0.1-0.2
		l-0.1-0.2l-1.8-5.5l-0.1-0.3h-0.3l-6.4-0.9h-0.2l-0.2,0.2l-3.5,3.4l-0.1,0.1v0.2l-0.4,7.5l-5.7,5.8l-5.2,1.9h-0.1l-0.1,0.1
		l-3.4,3.6l-11.7-7.2v-2.6l7.5,3.5l0.2,0.1l0.2-0.1l4.3-1.7l0,0l0,0l6.9-4.4l0.1-0.1l0.1-0.1l4.7-9.4l0.1-0.1v-0.1l-0.8-5l7.9-18.8
		l0,0l0,0l0.9-3.3v-0.1v-0.1l-0.9-4l5-4.8l0.1-0.1v-0.2l1-6.9v-0.2l-0.1-0.2l-3.5-4.7l3.3-0.4l0.5-0.1l-0.1-0.5l-0.6-5V127h-0.4
		l-4.1-0.3h-0.5v0.5l-0.3,3.7v0.1v0.1l0.5,1.2l-1.6-0.6l-0.3-0.1l-0.2,0.2l-3.9,3l0,0v0.1l-4.7,6l-3.5,3.4l-5.4,1.3h-0.1l-0.1,0.1
		l-2.9,2.7l-0.3,0.3l0.3,0.3l2.7,3.5l-2.9,5.2l-4.1,1.2l-0.3,0.1v0.3l-0.1,2v0.2l0.1,0.2l3.6,3.7l-1.2,3.4l-0.1,0.1v0.2l0.7,2.3v0.1
		v0.1l1.2,1.7l-4.1,3.8l-1.2-1.9l-1.3-5.5v-0.1v-0.1l-5.1-8.2l-0.1-0.2l-0.1-0.2L304,156l0,0l0,0l-6.5-7l-0.1-0.2h-5.6l-0.1,0.4
		l-0.7,2.9l0,0l0,0l-0.1,4l-3.1,1.9l-1.8-0.4l-0.3-0.1l-0.2,0.3l-1,1.5l-1.6-1.3l2.4-2.2l0.2-0.1v-3.6H285l-9.1-0.1l-4.4-3.3
		l-0.1-0.1h-0.2l-6.8,0.6l-1.8-2.5l3.3-0.3h0.3l0.1-0.2l2.2-4.3l0.3-0.6l-0.6-0.1l-5.6-1.3l-0.3-0.1l-0.2,0.2l-2.2,2.6l-1-1.7
		l-0.1-0.2l-0.2-0.1l-14.4-3.5l-0.3-0.1l-1.7,1.7l-1.7-1.6l-0.3-0.2l-0.3,0.2l-7.3,4.3l-3.4-3.3l1.1-3.1l0.1-0.2l-0.1-0.2l-1-2.9
		l4-1.3l4.1,2.9l0.4,0.3l0.3-0.4l2.1-3.4l0.1-0.1v-0.1l-0.1-6.1v-0.2l-0.1-0.1l-5.7-6.3l-0.6-0.6l-0.2,0.8l-1.6,6l-7.7,5l-0.2,0.1
		v0.2l-0.6,3.8l-3.4,3.1l-0.2,0.2l0,0l-0.2,0.2l-0.2,0.2L216,139l-1.2-2.3l2-0.4l0.6-0.1l-0.3-0.6l-3.3-6.1l-0.2-0.3l-0.3,0.1
		l-4.8,0.8l-4.9-1.7h-0.1h-0.1l-6.1,0.9H197l-0.1,0.3l-3.2,8l-1.9-1.1l-3.4-8l0.5-6.3v-0.6l-0.6,0.1l-5.7,0.7h-0.3l-0.1,0.3
		l-1.6,5.5l-0.1,0.2l0.2,0.2l2.2,2.7l-1.9,2.5l-3.2-1.8l-0.6-4.2v-0.3v-0.2l-0.3-2.1l0.4-1.7v-0.2l-0.1-0.2l-1.5-2.1l1.4-2.6
		l4.7-5.9l3.9-1.3l0.2-0.1l0.1-0.2l2.3-4v-0.1v-0.1l0.9-5.9v-0.2l0,0l0.1-0.6l0.9-5.5l0.8,1.1l-0.6,4.5v0.1l0.1,0.1l1.9,4.1l0.5,6.8
		v0.1l0.1,0.1l2.7,4.1l0.6,4.2v0.2l0.2,0.1l10.2,6.1l0.2,0.1h0.2l6.3-1.2h0.2l0.1-0.2l4.7-6.4l0.1-0.1v-0.1l1.3-6.8v-0.1v-0.1
		l-2.1-8l0.3-11.7v-0.1v-0.1l-1.3-4.3v-0.1v-0.1l-3.2-5.1l-0.5-3.6l0.8-0.5l1.7,2.4l0.3,0.4l0.4-0.3l2-1.3l0.4-0.2l-0.2-0.4
		l-1.8-3.5l-0.1-0.1l-0.1-0.1l-6.9-4.7l-0.1-0.1h-0.1l-9.9-0.9h-0.2l-0.1,0.1l-1.9,1.4l-4.9,2.9l-0.3,0.1l0.1,4.1l-3.2,5.1l-6.4,0.1
		h-0.2l-0.1,0.2l-2.1,2.7l-0.2,0.2L179,86l-0.1,0.1l-5.4,6.8l-2.6-0.1h-0.2l-0.1,0.1l-3.5,2.4l-2.5-0.1h-0.3l-0.1,0.3l-1,2.6
		l-1.1,2.1l-2.3,1.7l0.2,0.4l1,1.9l-1,1l-4.6-0.7l-0.4-0.1l-0.1,0.4l-1.3,4.6l0,0l0,0l-0.9,6.6l-2.5,1l-12.7-1.7l0,0l0,0l-5.8,0.2
		h-0.2h-0.2l-4.3,0.2h-0.1h-0.1l-5.4,2l-0.3,0.1v0.3l-0.3,4.3v0.1v0.1l0.4,1.7l-0.8,0.7l-0.9-2.4l-0.1-0.3h-0.3l-1.9-0.1l-3.1-3
		l-0.3-0.3l-0.3,0.2l-3.9,2.5l-2.6,0.3l-0.5,0.1l-2.5,0.3h-0.1l-0.1,0.1l-4,3.1h-0.1v0.1l-2.2,3l-4.3-0.2h-0.3l-0.2,0.3l-2.6,4.4
		l-3,0.4h-0.4v0.4l-0.1,3.3l-4.6,3l-0.2,0.2v0.3l0.3,4.6v0.2l0.1,0.1l1.7,2.2l-2,2.4l-0.2,0.2l0.1,0.2l0.5,2.2L82,153l0.3,0.1
		l2.8,0.7l0.6,2.8l-0.9,1.6l-0.1,0.2l-0.2,0.3l-0.1,0.2l-0.4,0.8l-4.2,2.4l-0.1,0.1l-0.1,0.1l-2.2,3.5l0,0l0,0l-2.3,4.8v0.1v0.1
		l-0.3,3.9v0.1v0.1l0.6,2.1l-1.5,1.9l-0.1,0.1v0.2l-0.1,1.4l-3.4-0.3l-2.3-2.2l0.2-2.1v-0.4l-0.4-0.1l-2.5-0.5l-0.4-0.1l-0.2,0.4
		l-1.4,3.4l-5.1,4.4L58,183v0.3l0.4,2.9l0.1,0.4h0.4l2.6-0.1l1.8,1.5l0.7,3.5l0.1,0.4h0.4l2.3-0.3l2.3,0.4v1.3l-3.3,4.4l-0.2,0.3
		h-0.1h-0.1h-0.1l-2.2,0.9l-0.2,0.1l-0.1,0.2L62,201l-1.3,0.3l-0.3,0.1v0.4l-0.1,2.6v0.3l0.3,0.1l1.9,1.1l-0.5,4.6v0.2l-0.1,0.1
		l-1.9,2.3l0,0l0,0l-0.9,1.4l-0.1,0.2v0.2l0.4,2v0.2l0.2,0.1l1.6,0.8l-0.2,2.7v0.3l0.3,0.2l4.7,3l0.1,5.5v0.1l0.1,0.1l3.9,7.4
		l0.1,0.1l0.2,0.3l1,2l-0.2,4.4l0,0v0.5l0,0v0.2v0.8l-3.6-0.1h-0.3l-0.1,0.2l-1.4,2.2l-1.9,0.2h-0.2l-0.1,0.2l-2.4,4.3l-3.7,1.4
		l-2.8-4.1l-0.1-0.2h-0.2l-7-0.9h-0.2L47,249l-3.3,3.4l-0.4,0.4l0.5,0.3l6.4,3.8l-1.2,0.8l-3.4-2.1l-0.3-0.2l-0.3,0.2l-2,1.6v-0.1
		V257l-0.1-0.1l-4.8-4.3l-0.7-0.6l-0.1,1l-0.6,5.6l-2-1l-0.1-0.1h-0.1l-5,0.3h-0.2l-0.1,0.2l-1.4,1.8l-3.3-5.5l-0.3-0.5l-0.4,0.4
		l-2.9,2.6l-0.2,0.2v0.2l0.3,4.4l-1.3,1.5l-0.2,0.2l0.1,0.3l0.7,2.1l0.1,0.1l1.9,1.4l-0.1,3v0.1v0.1l1.2,5.1l-0.4,4.8l-0.9,7.9v0.2
		l0.1,0.2l1,1.4l0.2,0.3l0.4-0.2l1.7-0.7l1.2,1.9l0.2,0.3l0.1,0.1l3.1,5.3v3.3l0.1,0.1l3.2,3.5l0,0l0.4,0.4l2.6,2.9l0.1,4v0.1
		l0.1,0.1l0.8,1.3l0.1,0.1v0.2l0.2,4.5v0.3l0.3,0.1l5,2.4v0.5v0.1v0.2v0.3l0,0l0.1,1v0.2l0.2,0.1l1.4,1l0.1,0.1v0.1l0.9,2.5l0.4,1.9
		l0,0l-1.4,1.4l-0.2,0.2v0.2l0.3,3.9v0.1l0.1,0.1l3.6,5.1l-0.3,5.3l-0.6,2.6l-0.1,0.2l0.2,0.2l3.3,4l0.2,0.3l0.3-0.1l1.6-0.7
		l0.2-0.1l0.1-0.1l0.7-1.2l1.5,0.8l0,0l0,0l2.1,0.7l0.2,0.1l0.2-0.1l2.5-1.6l0.2-0.1v-7.1l1.7-9.6l6.2-5.9l0.1-0.1v-0.2l0.5-6.3
		v-0.1v-0.1l-0.6-2.4l2.8-2.1l0.1-0.1h0.1l4.1,0.1h0.1H76l3.9-1.8H80l0,0l0.1,0.1l4.1,1.5h0.1h0.1l11-0.3H96l-0.1-0.6l-0.8-3.8
		l2.3-0.4l0.3-0.1l0.1-0.3l2.1-11.7V298l-0.1-0.2l-1.8-2.5l-0.1-0.1h-0.2l-2.3-0.5l0.3-1.6l3.3-3l0.3-0.3l-0.3-0.4l-2.7-3.7l1-0.5
		l1.9-0.8l0.2-0.1l0.2-0.1l4.4-1.5l0.3-0.1l0.1-0.3l0.6-3.2l3.5-2l4-1l0,0l1.4-0.4l0,0l2.3,2.2l-0.2,2.3l-0.6,2l-0.1,0.2l0.1,0.2
		l1.4,2.6l0.2,0.4l0.4-0.2l2.9-1.3l0.2-0.1l0.1-0.2l1.4-2.8l1.5-1.6l3.8,0.7h0.2l0.2-0.1l2.1-1.7l1.2-0.1l1,0.8l0.1,0.1h0.2l4-0.3
		l0,0l0,0l3-0.8l1.7-0.4l-0.1,2.8v0.1v0.1l1.6,3.8l0.2,0.4l0.4-0.1l1.8-0.4h0.1l0.1-0.1l1.1-1l2.2,1l-0.1,1.4l-0.7,1.6l-0.1,0.3
		l0.2,0.2l0.9,1l0.1,0.1h0.1l2.4,0.8l1,3.4l1,4.4l-1.1,2.7l-0.1,0.2l1.3,2.5l0.2,0.5l0.5-0.3l2.8-1.7l0.9,0.3l0.8,1.7l0.6,3.3v0.2
		l0.2,0.1l2,1.4l0.3,0.2l0.3-0.2l2.2-1.5l2,0.1l3.8,1.7l-0.1,1.6v0.1l0.1,0.1l0.9,1.6l0.1,0.2h0.2l2.1,0.4h0.3l0.2-0.2l1.4-1.5
		l1.5,1.5l0,0h0.1l2.1,1.3l-0.5,3.3v0.1v0.1l0.5,2.1v0.1l0.1,0.1l2.3,2.6l0.1,0.1h0.1l2,0.7l0.2,0.1l0.2-0.1l1.8-1.1l1.2,0.4
		l1.1,2.2l0.1,0.2l0.2,0.1l4.8,1.6l0.2,0.1l0.2-0.1l2.1-1.6h0.1v-0.1l2.1-3l0.2-0.2l-0.1-0.3l-3.7-8.1l-0.1-0.1l0,0l0,0l1.4-1.8
		l4.7-0.4h0.4v-0.4l0.4-3.3l2-1.1l2.2,0.1l2.9,2.3l0.3,0.3l0.3-0.3l1.8-1.7l0.3-0.3l-0.2-0.3l-2.2-3.6l-1-3.3l2.2-2.3l1.8-0.5
		l3.2,3.4l0.1,0.1h0.2l7,0.4h0.2h0.2l7.3,1.7l4.1,2.6l0.3,0.2l0.3-0.2l2.2-1.8l3.4,1.8h0.1h0.1l12.3,2.4h0.2l0.1-0.1l4.5-2l0.2-0.1
		h0.1l3.4-0.1l2.9,4.8l0.1,0.2h0.2l2.4,0.4h0.3l0.2,0.1l1.6,0.5l0.1,2.8l-1,1.2l-0.2,0.2l0.1,0.3l0.7,2.1l-2.4,2.8l-0.2,0.2l0.1,0.2
		l0.5,2.2l0.1,0.3l0.3,0.1l5.3,1.2l0.2,2.7v0.4h0.4l2.7,0.1l1.9,0.5l1.7,1.9l-2.6,2.2l-0.2,0.1v3l0.6-0.2l2.8-0.9l2.4,1.3l0.2,0.1
		h0.2l2.3-0.5h0.1l0.1-0.1l1.9-1.6l5.5-1h0.2h0.2l5.7,0.1l-2,2.1l-0.3,0.3l0.2,0.3l5.7,9.3l0.1,0.1v0.2l6.3,30.3l0.1,0.5l0.5-0.1
		l3.4-0.5h0.2l0.1-0.2l2.1-3.1l1.6,0.7l0.6,3.3v0.2l0.2,0.1l7.2,3.9l0.2,0.1l0.2-0.1l5.4-2l2.7,1.2l2.1,4.3l0.1,0.2v0.2l0.5,4.5v0.3
		l0.2,0.1l3.9,2.2l0.1,4.2v0.4l0.4,0.1l4,0.9l1.6,2l0.3,0.3l0.4-0.2l4.2-2.2l0.8,2.7v0.1v0.1l3,4.4l0.1,0.2h0.2l4.7,0.5h0.3l0.1-0.3
		l1.3-2.9l6-0.2h0.2l0.1-0.1l4.2-3.1l0.2-0.1l0.2-0.1l16.7-6.3l5.7-0.4l0.9,1.3l0.1,0.2h0.2l8.7,1.9l0.6,3.7v0.2l0.2,0.1l3.4,1.7
		h0.1h0.1l9.5,1l3.6,0.5l1.8,1.7l0.2,0.2l0.3-0.1l3-1h0.1l0.1-0.1l2.7-2.3l0.1-0.1v-0.1l2-4.8l0.1-0.3l-0.2-0.2l-3.1-3.8l0.4-5.5
		l1.8-0.6l0.3-0.1v-0.3l0.1-2.3l2.3-0.1h0.4l0.8-3.1l10.9,4.4l0,0l0,0l9.9,2.3l2,7.8l0.1,0.2l0.2,0.1l7.4,3.9l0.1,0.1h0.1l5.2-0.1
		h0.1l0.1-0.1l7.3-4.3l5.5,1.8h0.1h0.1l5.7-0.4l1.4,2.5l0.1,0.2h0.3l3.5,0.1h0.4h0.1l1.9,0.1l2.1,3.9l0.1,0.2h0.3l17.1,1.6h0.2
		l0.1-0.1l11.4-6.9l3.5-0.1h0.3l0.1-0.3l1.1-3.7l5.4-5l7.4-0.4l2.2,2.1l0.3,0.3l0.3-0.3l3.1-2.8l13.6,2.2l0.4,0.1l0.1-0.4l1.9-5.2
		l4.6-3.2l0.3-0.2l-0.1-0.4l-1.9-4.7l2-12.8l3.4-3.4l0.2-0.2l-0.1-0.3l-2.3-6.3l-0.1-0.3h-0.3l-4.2-0.4l3.1-5.8l6.1-4.2l0.2-0.1
		l0.2-0.1l8.7-4.5l6.6,2.3h0.1h0.1l8-1.3l11.8,11.7l14.9,15.4l0.2,0.2l0.3-0.1l5.7-2.3l3.5,1.6l0.2,0.1l0.2-0.1l2.4-1.2l4.8,1.5h0.1
		h0.1l2.7-0.3l0,0l3.9,6.1v0.1h0.1l4.2,3.7l0.2,0.2l0.3-0.1l8.9-4.3l0.2-0.1l0.1-0.2l1.1-3.6l6.5-7.3l3.4-1.6l3.3,5.4l-1.2,4v0.2
		l0.1,0.2l2.1,6.1l0.1,0.1v0.2l-0.5,15.2v0.1l0.1,0.1l2.4,4l-9.9,0.8H675l-0.1,0.3l-3.5,7.7l-0.1,0.3l0.2,0.2l9.8,10.1l0.2,3.6
		l0.1,1l0.7-0.7l5.3-5.1l9.2,0.1h0.2l0.1-0.1l6.8-5.5l0.1-0.1v-0.1l4-8.1v-0.1v-0.1l2-22.2l2.7-11.6v-0.1v-0.1l-1.8-13.6v-0.2v-0.2
		l1.2-15.4V332v-0.1l-1.7-4.8l0,0l0,0l-7.6-15.4v-0.1l0,0l-2.4-2.9l-2.2-10.7v-0.1l0,0l-1.2-2.8l6.3,3.4l2.4,6.4v0.1v0.1l3.8,4.8
		l4.6,7.3l3.3,5.3v0.1l0.1,0.1l3.7,2.8l1.1,3.3l0,0l1,3l0.1,0.2l0.2,0.1l4.5,2.1l0.6,4.4v0.1l0.1,0.1l4.8,6.1l0.8,1l0.1-1.2l0.4-5.4
		v-0.1v-0.1l-0.6-3.5l3.3-0.2h0.1h0.1l1.2-0.6l3.3,1.7l1.3,0.7l-0.6-1.3l-2.9-6l-0.1-0.3h-4.4l-4.3-1.9l-4.9-3.5l-3.2-8.2l-1.7-5
		l3.5-2l7.2-0.4l1.4-0.1l-1.2-0.8L716,296.6l-12.8-9.6l-5.3-10l-0.1-0.1l-0.1-0.1l-7.3-5l-3.3-4.2l-0.2-0.3l-0.3,0.2l-2.3,1
		l-0.2,0.1l-0.1,0.2l-0.5,2.5l-0.1,0.3l0.3,0.2l4.2,2.9l2.1,3.2l-0.9,1.2l-1.8-0.4l-0.5-0.1l-0.1,0.5l-0.7,3l-0.1,0.3l0.3,0.2
		l4.1,3.1l3.6,8.3l-4.8-2l-1.7-2l1.6-3.1l0.2-0.5l-0.5-0.2l-4.2-1.7l0,0h-0.1l-8.7-1.6h-0.2l-0.1,0.1l-6.8,3.5l-0.2,0.1l-0.1,0.2
		l-2.1,9.3l-2.2-2.9l-0.4-0.5l-0.4,0.5l-2.7,3.5l-2.4-7.1l-0.2-0.6l-0.5,0.3l-5.6,3.4l-4.2-0.7l0.2-4.1l6.2-15.6v-0.1v-0.1l1.6-15.6
		l1.8-7.5v-0.1v-0.1l-1.5-6.1l2-5.5v-0.1V237l-0.9-5.8l12.8-12.6l3.9,0.7l0.4,0.1l0.1-0.4l0.4-1.6l0.1-0.2l-0.1-0.2l-0.9-1.4
		l1.4-0.9l0.1-0.1l0.3-0.2l3.5-2.3l0,0l0,0l2.3-1.9l3.2-0.8l0.4-0.1l-0.1-0.4l-1-6.2l5.3-1.7h0.1l0.1-0.1l4.3-3.8l2.9-0.1l-2.4,3.5
		l-0.2,0.4l0.3,0.3l2.9,2.5l0.4,0.3l0.3-0.4l4.2-4.7l0.1-0.1v-0.1l1-7.2l3.5-1.3l0.1-0.1l0.1-0.1l3-3.9l0.3-0.4l-0.4-0.3l-3.1-2.3
		l-0.4-0.3l-0.3,0.4l-2.4,3l-2.4-2.2l-0.8-13.3v-0.1v-0.1l-2.4-7.9l0.8-5.6l4.6-6.6l2.5-0.1h0.3l0.1-0.3l1-3l5.1,6.9l0.2,0.2h0.3
		l3.9-0.7l0.4-0.1v-0.4l0.3-2.9v-0.1v-0.1l-0.9-5.9l0,0l-1-4.1l0,0l2.4-2.3l0.3-0.3l-0.3-0.4l-6.5-7.8l1.4-4.7l4.8-1.7l-2.6,3.9
		l-0.1,0.2v0.2l0.8,3.9v0.2l0.2,0.1l5.1,3.5l0.1,0.1h0.1l1.9,0.1L723,138v0.4l0.4,0.1l1.8,0.4l-2,10v0.2l0.1,0.2l2.3,3.8l0.8,12l0,0
		l0,0l1.8,7.8l0,0l2.4,7.6l-2.7,2.9l-0.2,0.2l0.1,0.3l0.8,2.8l-1.4,1.9l-0.2,0.3l0.3,0.3l3.9,4.6l0.6,7.3v0.2l0.1,0.1l5.6,6.3
		l0.3,0.3l0,0l6.3,7.1l0,0h0.1l36,24.1L781.2,239.9z M140.4,125.1l-1.4,1.6l-0.1,0.1v0.2l0.2,3.2l-0.4,2.7l-2,1.5l-0.1,0.1v0.1
		l-0.6,1.5l-4,0.1l-1.6-2.3l-0.1-0.2h-4l-0.9-1.1l6.5-7.9l0.1-0.1v-0.2l-0.2-4h0.1l3.1-0.6l4,0.6l1.5,2.2L140.4,125.1z M161.3,134.6
		l-2.2,2.2l0,0l-3.9,4.4l-0.1,0.1v0.1l-1,3.7l-0.1,0.2l0,0l-1.7,1.6l-3.4-0.2l-1.3-1.4h1.1h0.2l0.1-0.1l1.8-1.4l0.1,0.2l0.1-0.4
		l0.1-0.1l-0.1-0.1l0.1-0.3l0.5-1.3v-0.1v-0.1l-0.3-4l1.4-2.8l5.2-5.6l2.9,0.7l0.9,1.6L161.3,134.6z M499.4,354l-1.8,1.7l-0.1,0.1
		v0.1l-0.6,1.1l-0.1,0.2l0.1,0.2l0.6,2l-0.7,1.8l-1.8,0.5l-0.3,0.1v0.4l-0.1,2.2l-2.5,4l-3.7,1.1h-0.2l-0.1,0.1l-2.4,3.3l-2.7-0.2
		h-0.4l-0.1,0.4l-0.8,4.2l-2.1,2.3l-6.8,3h-0.1h-4.3l-0.8-1.7l1.8-1.1l2.7-0.4h0.1l0.1-0.1l5.5-3.8l0.1-0.1l0.1-0.1l2-3l4.1-3.7
		l0.1-0.1v-0.1l0.9-2.7l2.4-4.1l2.9-4.5l0,0V357l2.5-6.9l0,0l0,0l0.2-0.6l0,0l1.5-4.4l0.4-1.2l0.3-0.8l0,0l0,0l1.1-6.6l1.6-2.9
		l1.9,0.2l0.4,2.3l-1.1,5.9v0.1v0.1l0.4,5.8l0,0v0.1l0.9,3.1L499.4,354z"/>
	<polygon class="st0" points="278.6,121.7 278.7,122.5 279.4,122 281.1,120.8 281.3,120.7 281.3,117.3 280.9,117.2 278.9,116.7 
		278.3,116.6 278.3,117.2 	"/>
	<polygon class="st0" points="251.6,132.5 251.7,132.7 252,132.7 257.3,132.9 257.6,132.9 257.7,132.5 258.3,130.6 258.4,130.5 
		258.4,130.4 258,127.4 258,127.2 257.9,127.1 255.1,124.1 254.9,123.8 254.6,124 250.6,125.4 250.3,125.4 250.2,125.7 249.3,129.2 
		249.2,129.4 249.3,129.6 	"/>
	<polygon class="st0" points="348.1,39.6 347.9,39.1 347.5,39.3 344.7,40.8 344.3,41 344.5,41.4 346.3,44.4 346.6,44.9 347,44.5 
		349,42.6 349.3,42.3 349.2,42 	"/>
	<polygon class="st0" points="48.9,123.8 49.1,124.3 49.5,124.1 55,121.2 55.3,121.1 55.3,120.8 55.8,110.3 55.8,110.1 55.7,110 
		53.1,105.9 52.4,105 52.2,106.1 51.1,110.2 49.2,109 47.1,102.9 46.9,102.4 46.4,102.7 43.9,104.3 40.5,104 39.7,104 40,104.7 	"/>
	<polygon class="st0" points="365.4,33.6 365.4,33.7 365.5,33.7 366.5,34.7 366.8,34.9 367.1,34.7 368.5,33.7 368.9,33.3 
		368.5,32.9 366.6,31.1 366.3,30.8 365.9,31.1 364.9,31.9 364.6,32.2 364.8,32.5 	"/>
	<polygon class="st0" points="340.5,40.6 340.3,41.1 339.9,42.5 339.8,42.8 340.2,43 341.7,43.9 342.4,44.3 342.4,43.5 342.5,41.6 
		342.5,41.2 342.2,41.1 341,40.7 	"/>
	<polygon class="st0" points="281.9,117.6 282,121.6 279.4,124.2 279.2,124.4 279.3,124.7 281.4,129.5 281.5,129.7 281.8,129.8 
		283.9,130 284,131.7 284,132.1 284.4,132.2 287.1,132.8 288.8,133.7 289.5,134 289.5,133.3 290.8,121.7 291.6,117.4 295.3,113.5 
		299.7,112 299.9,112 300,111.8 301.8,109.3 301.9,109.1 301.9,108.8 301.2,106.9 303.4,108.3 303.6,108.4 303.7,108.4 306.8,108.1 
		307.1,108 307.9,105.8 309.5,105.9 310,106 310,105.5 310.1,103.9 311.9,104.5 312.5,104.7 312.6,104.2 312.8,102.8 314,104.1 
		314.4,104.5 314.8,104.1 316.1,102.2 316.2,102.1 316.2,102 316.6,100 318.5,101.4 318.8,101.7 319.1,101.4 320.6,100 323.9,100.7 
		324.2,100.8 324.4,100.6 327.1,97.4 349.2,96.9 349.3,96.9 349.4,96.9 354.8,94 355,93.9 355,93.6 355.6,89.7 355.6,89.4 
		355.5,89.3 353.2,86.5 353,86.3 352.7,86.4 347.4,87.7 347.2,87.8 347.1,88 346.3,89.7 337.6,89 333.8,85.7 333.5,85.5 333.2,85.7 
		329.9,87.5 326.6,86.1 326.4,86 326.2,86.1 321.9,88.9 318.2,88.9 318,89.1 316.6,90.3 314.4,88 313.8,87.4 313.6,88.3 312.5,93.2 
		310.1,93.4 309.7,93.4 309.6,93.8 309.4,95.6 303,97.6 300.7,96.6 300.4,96.5 300.1,96.8 298.6,98.6 298.3,98.9 300.3,100.9 
		298.1,102.9 294,101.2 293.4,101 293.3,101.6 292.8,104.5 290,104.4 289.5,104.3 289.5,104.8 289.3,107.1 285.3,109.2 282.8,108.4 
		282.6,108.3 282.3,108.4 279.3,110.7 279.1,110.9 279.1,111.1 279,114.4 278.9,114.7 279.1,114.8 	"/>
</g>
</svg>
