<?xml version="1.0" encoding="utf-8"?><!DOCTYPE svg PUBLIC "-//W3C//DTD SVG 1.1//EN" "http://www.w3.org/Graphics/SVG/1.1/DTD/svg11.dtd"><svg xmlns="http://www.w3.org/2000/svg" xmlns:xlink="http://www.w3.org/1999/xlink"><symbol viewBox="0 0 24 24" id="baseline-check_circle" xmlns="http://www.w3.org/2000/svg"><path d="M0 0h24v24H0z" fill="none"/><path d="M12 2C6.48 2 2 6.48 2 12s4.48 10 10 10 10-4.48 10-10S17.52 2 12 2zm-2 15l-5-5 1.41-1.41L10 14.17l7.59-7.59L19 8l-9 9z"/></symbol><symbol viewBox="0 0 60 60" id="credit-card" xmlns="http://www.w3.org/2000/svg"><g fill="#d7b740"><path d="M55.783 8H4.217A4.222 4.222 0 0 0 0 12.217v35.566A4.222 4.222 0 0 0 4.217 52h51.566A4.222 4.222 0 0 0 60 47.783V12.217A4.222 4.222 0 0 0 55.783 8zM58 47.783A2.22 2.22 0 0 1 55.783 50H4.217A2.22 2.22 0 0 1 2 47.783V12.217A2.22 2.22 0 0 1 4.217 10h51.566A2.22 2.22 0 0 1 58 12.217v35.566z"/><path d="M16 37H7a1 1 0 1 0 0 2h9a1 1 0 1 0 0-2zM29 37h-9a1 1 0 1 0 0 2h9a1 1 0 1 0 0-2zM8 42H7a1 1 0 1 0 0 2h1a1 1 0 1 0 0-2zM14 42h-2a1 1 0 1 0 0 2h2a1 1 0 1 0 0-2zM19 42h-1a1 1 0 1 0 0 2h1a1 1 0 1 0 0-2zM25 42h-2a1 1 0 1 0 0 2h2a1 1 0 1 0 0-2zM28.29 42.29c-.181.19-.29.45-.29.71 0 .26.109.52.29.71.189.18.45.29.71.29s.52-.11.71-.29c.18-.19.29-.45.29-.71 0-.26-.11-.52-.29-.71-.38-.37-1.061-.37-1.42 0zM48 33a6.953 6.953 0 0 0-3.5.947A6.953 6.953 0 0 0 41 33c-3.859 0-7 3.14-7 7s3.141 7 7 7a6.953 6.953 0 0 0 3.5-.947A6.953 6.953 0 0 0 48 47c3.859 0 7-3.14 7-7s-3.141-7-7-7zm-2 7a4.98 4.98 0 0 1-1.5 3.562 4.98 4.98 0 0 1 0-7.124A4.98 4.98 0 0 1 46 40zm-10 0c0-2.757 2.243-5 5-5 .631 0 1.23.13 1.787.345C41.68 36.583 41 38.212 41 40s.68 3.417 1.787 4.655A4.946 4.946 0 0 1 41 45c-2.757 0-5-2.243-5-5zm12 5c-.631 0-1.23-.13-1.787-.345C47.32 43.417 48 41.788 48 40s-.68-3.417-1.787-4.655A4.946 4.946 0 0 1 48 35c2.757 0 5 2.243 5 5s-2.243 5-5 5zM8.255 30h13.49A2.258 2.258 0 0 0 24 27.745v-9.49A2.258 2.258 0 0 0 21.745 16H8.255A2.258 2.258 0 0 0 6 18.255v9.49A2.258 2.258 0 0 0 8.255 30zM12 24H8v-2h4v2zm-4 3.745V26h4v1.745c0 .087.016.17.026.255H8.255A.255.255 0 0 1 8 27.745zM22 24h-4v-1.745c0-.141.114-.255.255-.255h3.49c.087 0 .17-.016.255-.026V24zm-.255 4h-3.771c.01-.085.026-.168.026-.255V26h4v1.745a.255.255 0 0 1-.255.255zm0-10c.141 0 .255.114.255.255v1.49a.255.255 0 0 1-.255.255h-3.49A2.258 2.258 0 0 0 16 22.255v5.49a.255.255 0 0 1-.255.255h-1.49a.255.255 0 0 1-.255-.255v-9.49c0-.141.114-.255.255-.255h7.49zm-13.49 0h3.771c-.01.085-.026.168-.026.255V20H8v-1.745c0-.141.114-.255.255-.255z"/></g></symbol><symbol viewBox="0 0 24 24" id="facebook" xmlns="http://www.w3.org/2000/svg"><path d="M22.676 0H1.324C.593 0 0 .593 0 1.324v21.352C0 23.408.593 24 1.324 24h11.494v-9.294H9.689v-3.621h3.129V8.41c0-3.099 1.894-4.785 4.659-4.785 1.325 0 2.464.097 2.796.141v3.24h-1.921c-1.5 0-1.792.721-1.792 1.771v2.311h3.584l-.465 3.63H16.56V24h6.115c.733 0 1.325-.592 1.325-1.324V1.324C24 .593 23.408 0 22.676 0"/></symbol><symbol viewBox="0 0 60 60" id="file" xmlns="http://www.w3.org/2000/svg"><g fill="#d7b740"><path d="M42.5 22h-25a1 1 0 1 0 0 2h25a1 1 0 1 0 0-2zM17.5 16h10a1 1 0 1 0 0-2h-10a1 1 0 1 0 0 2zM42.5 30h-25a1 1 0 1 0 0 2h25a1 1 0 1 0 0-2zM42.5 38h-25a1 1 0 1 0 0 2h25a1 1 0 1 0 0-2zM42.5 46h-25a1 1 0 1 0 0 2h25a1 1 0 1 0 0-2z"/><path d="M38.914 0H6.5v60h47V14.586L38.914 0zm.586 3.414L50.086 14H39.5V3.414zM8.5 58V2h29v14h14v42h-43z"/></g></symbol><symbol viewBox="0 0 24 24" id="instagram" xmlns="http://www.w3.org/2000/svg"><path d="M12 0C8.74 0 8.333.015 7.053.072 5.775.132 4.905.333 4.14.63c-.789.306-1.459.717-2.126 1.384S.935 3.35.63 4.14C.333 4.905.131 5.775.072 7.053.012 8.333 0 8.74 0 12s.015 3.667.072 4.947c.06 1.277.261 2.148.558 2.913a5.885 5.885 0 0 0 1.384 2.126A5.868 5.868 0 0 0 4.14 23.37c.766.296 1.636.499 2.913.558C8.333 23.988 8.74 24 12 24s3.667-.015 4.947-.072c1.277-.06 2.148-.262 2.913-.558a5.898 5.898 0 0 0 2.126-1.384 5.86 5.86 0 0 0 1.384-2.126c.296-.765.499-1.636.558-2.913.06-1.28.072-1.687.072-4.947s-.015-3.667-.072-4.947c-.06-1.277-.262-2.149-.558-2.913a5.89 5.89 0 0 0-1.384-2.126A5.847 5.847 0 0 0 19.86.63c-.765-.297-1.636-.499-2.913-.558C15.667.012 15.26 0 12 0zm0 2.16c3.203 0 3.585.016 4.85.071 1.17.055 1.805.249 2.227.415.562.217.96.477 1.382.896.419.42.679.819.896 1.381.164.422.36 1.057.413 2.227.057 1.266.07 1.646.07 4.85s-.015 3.585-.074 4.85c-.061 1.17-.256 1.805-.421 2.227a3.81 3.81 0 0 1-.899 1.382 3.744 3.744 0 0 1-1.38.896c-.42.164-1.065.36-2.235.413-1.274.057-1.649.07-4.859.07-3.211 0-3.586-.015-4.859-.074-1.171-.061-1.816-.256-2.236-.421a3.716 3.716 0 0 1-1.379-.899 3.644 3.644 0 0 1-.9-1.38c-.165-.42-.359-1.065-.42-2.235-.045-1.26-.061-1.649-.061-4.844 0-3.196.016-3.586.061-4.861.061-1.17.255-1.814.42-2.234.21-.57.479-.96.9-1.381.419-.419.81-.689 1.379-.898.42-.166 1.051-.361 2.221-.421 1.275-.045 1.65-.06 4.859-.06l.045.03zm0 3.678a6.162 6.162 0 1 0 0 12.324 6.162 6.162 0 1 0 0-12.324zM12 16c-2.21 0-4-1.79-4-4s1.79-4 4-4 4 1.79 4 4-1.79 4-4 4zm7.846-10.405a1.441 1.441 0 0 1-2.88 0 1.44 1.44 0 0 1 2.88 0z"/></symbol><symbol viewBox="0 0 512 512" id="money" xmlns="http://www.w3.org/2000/svg"><g fill="#d7b740"><path d="M362.898 231.148c0-13.27-10.796-24.065-24.066-24.065-13.271 0-24.066 10.796-24.066 24.065 0 13.27 10.796 24.066 24.066 24.066s24.066-10.795 24.066-24.066zm-33.132 0c0-4.999 4.067-9.065 9.066-9.065 4.999 0 9.066 4.066 9.066 9.065s-4.067 9.066-9.066 9.066c-4.999 0-9.066-4.066-9.066-9.066z"/><path d="M421.666 173.948c-14.135 0-25.634-11.499-25.634-25.634a7.503 7.503 0 0 0-7.5-7.5l-221.998.001a7.5 7.5 0 0 0 0 15l215.192-.001c3.073 16.404 16.036 29.367 32.44 32.441v85.787c-16.405 3.073-29.367 16.036-32.44 32.441l-301.152.002c-3.073-16.404-16.036-29.367-32.44-32.44v-85.787c16.405-3.073 29.367-16.036 32.44-32.441h55.96c4.142 0 7.5-3.357 7.5-7.5s-3.358-7.5-7.5-7.5H73.768a7.5 7.5 0 0 0-7.5 7.5c0 14.135-11.5 25.635-25.634 25.635a7.5 7.5 0 0 0-7.5 7.5v99.4a7.5 7.5 0 0 0 7.5 7.5c14.135 0 25.634 11.499 25.634 25.634a7.501 7.501 0 0 0 7.5 7.5l314.764-.002a7.5 7.5 0 0 0 7.5-7.5c0-14.135 11.5-25.635 25.634-25.635a7.5 7.5 0 0 0 7.5-7.5v-99.4a7.501 7.501 0 0 0-7.5-7.501z"/><path d="M509.803 176.145a7.502 7.502 0 0 0-5.303-2.196l-42.201.001v-58.767a7.503 7.503 0 0 0-7.5-7.5L7.5 107.685a7.5 7.5 0 0 0-7.5 7.5v231.933a7.503 7.503 0 0 0 7.5 7.5h42.201v42.199a7.503 7.503 0 0 0 7.5 7.5l447.299-.002a7.5 7.5 0 0 0 7.5-7.5V181.448a7.5 7.5 0 0 0-2.197-5.303zM15 339.617V122.685l432.299-.002v216.933L15 339.617zm482 49.698l-432.299.002v-34.699l390.099-.002a7.5 7.5 0 0 0 7.5-7.5V188.95l34.7-.001v200.366z"/><path d="M123.467 207.086c-13.27 0-24.066 10.796-24.066 24.065 0 13.271 10.796 24.066 24.066 24.066s24.066-10.796 24.066-24.066c0-13.269-10.796-24.065-24.066-24.065zm0 33.132c-4.999 0-9.066-4.067-9.066-9.066 0-4.999 4.067-9.065 9.066-9.065 4.999 0 9.066 4.066 9.066 9.065 0 4.998-4.067 9.066-9.066 9.066zM288.351 231.151c0-31.54-25.66-57.2-57.2-57.2-31.54 0-57.2 25.66-57.2 57.2s25.66 57.2 57.2 57.2c31.54.001 57.2-25.66 57.2-57.2zm-99.401 0c0-23.27 18.931-42.2 42.2-42.2 23.269 0 42.2 18.931 42.2 42.2 0 23.27-18.931 42.2-42.2 42.2-23.269.001-42.2-18.93-42.2-42.2z"/></g></symbol><symbol viewBox="0 0 24 24" id="outline-arrow_back" xmlns="http://www.w3.org/2000/svg"><path opacity=".87" fill="none" d="M0 0h24v24H0V0z"/><path d="M17.51 3.87L15.73 2.1 5.84 12l9.9 9.9 1.77-1.77L9.38 12l8.13-8.13z"/></symbol><symbol viewBox="0 0 24 24" id="outline-arrow_forward" xmlns="http://www.w3.org/2000/svg"><path opacity=".87" fill="none" d="M24 24H0V0h24v24z"/><path d="M6.49 20.13l1.77 1.77 9.9-9.9-9.9-9.9-1.77 1.77L14.62 12l-8.13 8.13z"/></symbol><symbol viewBox="0 0 24 24" id="outline-arrow_upward" xmlns="http://www.w3.org/2000/svg"><path fill="none" d="M0 0h24v24H0V0z"/><path d="M4 12l1.41 1.41L11 7.83V20h2V7.83l5.58 5.59L20 12l-8-8-8 8z"/></symbol><symbol viewBox="0 0 24 24" id="outline-check" xmlns="http://www.w3.org/2000/svg"><path fill="none" d="M0 0h24v24H0V0z"/><path d="M9 16.17L4.83 12l-1.42 1.41L9 19 21 7l-1.41-1.41L9 16.17z"/></symbol><symbol viewBox="0 0 24 24" id="outline-close" xmlns="http://www.w3.org/2000/svg"><path fill="none" d="M0 0h24v24H0V0z"/><path d="M19 6.41L17.59 5 12 10.59 6.41 5 5 6.41 10.59 12 5 17.59 6.41 19 12 13.41 17.59 19 19 17.59 13.41 12 19 6.41z"/></symbol><symbol viewBox="0 0 24 24" id="outline-local_shipping" xmlns="http://www.w3.org/2000/svg"><path fill="none" d="M0 0h24v24H0V0z"/><path d="M20 8h-3V4H3c-1.1 0-2 .9-2 2v11h2c0 1.66 1.34 3 3 3s3-1.34 3-3h6c0 1.66 1.34 3 3 3s3-1.34 3-3h2v-5l-3-4zm-.5 1.5l1.96 2.5H17V9.5h2.5zM6 18c-.55 0-1-.45-1-1s.45-1 1-1 1 .45 1 1-.45 1-1 1zm2.22-3c-.55-.61-1.33-1-2.22-1s-1.67.39-2.22 1H3V6h12v9H8.22zM18 18c-.55 0-1-.45-1-1s.45-1 1-1 1 .45 1 1-.45 1-1 1z"/></symbol><symbol viewBox="0 0 24 24" id="outline-play_circle" xmlns="http://www.w3.org/2000/svg"><path fill="none" d="M0 0h24v24H0V0z"/><path d="M10 16.5l6-4.5-6-4.5z"/><path d="M12 2C6.48 2 2 6.48 2 12s4.48 10 10 10 10-4.48 10-10S17.52 2 12 2zm0 18c-4.41 0-8-3.59-8-8s3.59-8 8-8 8 3.59 8 8-3.59 8-8 8z"/></symbol><symbol viewBox="0 0 24 24" id="outline-security" xmlns="http://www.w3.org/2000/svg"><path fill="none" d="M0 0h24v24H0V0z"/><g><path d="M12 1L3 5v6c0 5.55 3.84 10.74 9 12 5.16-1.26 9-6.45 9-12V5l-9-4zm0 10.99h7c-.53 4.12-3.28 7.79-7 8.94V12H5V6.3l7-3.11v8.8z"/></g></symbol><symbol viewBox="0 0 24 24" id="telegram" xmlns="http://www.w3.org/2000/svg"><path d="M9.028 20.837c-.714 0-.593-.271-.839-.949l-2.103-6.92L22.263 3.37"/><path d="M9.028 20.837c.552 0 .795-.252 1.105-.553l2.941-2.857-3.671-2.214"/><path d="M9.403 15.213l8.89 6.568c1.015.56 1.748.271 2-.942l3.62-17.053c.372-1.487-.564-2.159-1.534-1.72L1.125 10.263c-1.45.582-1.443 1.392-.264 1.753l5.455 1.7L18.94 5.753c.595-.36 1.143-.167.694.232"/></symbol><symbol viewBox="0 0 24 24" id="viber" xmlns="http://www.w3.org/2000/svg"><path d="M252.47-252.87c-16.57-15.24-83.48-63.82-232.54-64.48 0 0-175.79-10.6-261.47 68.01-47.7 47.7-64.49 117.49-66.25 204.05-1.77 86.57-4.07 248.75 152.29 292.74l.15.04-.1 67.1s-.98 27.18 16.89 32.72c21.64 6.72 34.34-13.94 55-36.19 11.35-12.22 27-30.17 38.8-43.89 106.94 8.96 189.18-11.57 198.51-14.6 21.6-7.03 143.77-22.67 163.64-184.85 20.5-167.21-9.94-272.95-64.92-320.65M270.58 55.7c-16.8 135.42-115.85 143.97-134.12 149.83-7.77 2.5-80.02 20.47-170.84 14.54 0 0-67.68 81.64-88.8 102.88-3.31 3.32-7.19 4.66-9.78 4.03-3.64-.9-4.65-5.2-4.6-11.5.06-9 .57-111.52.57-111.52-.1-.03-.07-.02-.02 0-132.23-36.75-124.52-174.8-123.03-247.09 1.5-72.28 15.08-131.51 55.43-171.34 72.48-65.65 221.79-55.84 221.79-55.84 126.08.55 186.51 38.52 200.52 51.24 46.51 39.83 70.22 135.14 52.88 274.76"/><path d="M20.81 2.34c-.6-.55-3-2.3-8.37-2.32 0 0-6.33-.38-9.42 2.45C1.3 4.18.7 6.7.63 9.82c-.06 3.11-.13 8.95 5.5 10.54v2.42s-.04.97.6 1.17c.79.25 1.24-.5 1.99-1.3l1.4-1.58c3.85.32 6.8-.42 7.14-.53.78-.25 5.18-.81 5.9-6.65.74-6.03-.36-9.83-2.34-11.55m.65 11.11c-.6 4.88-4.17 5.19-4.83 5.4-.28.09-2.88.73-6.15.52 0 0-2.44 2.94-3.2 3.7-.12.13-.26.17-.35.15-.13-.03-.17-.19-.16-.41l.02-4.02c-4.77-1.32-4.49-6.3-4.44-8.9.06-2.6.55-4.73 2-6.17 2.61-2.36 7.99-2 7.99-2 4.54.01 6.71 1.38 7.22 1.84 1.67 1.43 2.53 4.86 1.9 9.9"/><path d="M14.65 9.98a.3.3 0 0 1-.3-.29c-.06-1.03-.54-1.53-1.53-1.58a.3.3 0 0 1 .03-.61c1.3.07 2.03.82 2.1 2.16a.3.3 0 0 1-.29.32h-.01"/><path d="M16.2 10.5a.3.3 0 0 1-.3-.3 3.5 3.5 0 0 0-.9-2.57 3.78 3.78 0 0 0-2.65-1.15.3.3 0 1 1 .04-.6c1.3.09 2.32.54 3.05 1.34s1.1 1.8 1.07 2.99a.3.3 0 0 1-.3.3"/><path d="M17.8 11.13a.3.3 0 0 1-.3-.3c-.02-1.86-.55-3.28-1.64-4.34a5.63 5.63 0 0 0-4.03-1.59.3.3 0 0 1-.3-.3c0-.17.14-.3.3-.3 1.77 0 3.27.6 4.46 1.76a6.45 6.45 0 0 1 1.81 4.76.3.3 0 0 1-.3.3zm-4.9 2.61s.42.04.65-.24l.45-.57c.21-.28.73-.45 1.24-.17a13.63 13.63 0 0 1 2.15 1.54c.33.28.41.69.18 1.12v.01c-.23.41-.54.8-.93 1.15a1.84 1.84 0 0 1-1.1.47c-.13 0-.26-.02-.4-.06v-.01c-.48-.14-1.28-.48-2.6-1.2a15.6 15.6 0 0 1-3.18-2.33l-.03-.03-.03-.03-.04-.03-.03-.04a15.38 15.38 0 0 1-2.32-3.17 13.72 13.72 0 0 1-1.2-2.6l-.02-.01A1.24 1.24 0 0 1 5.64 7c.04-.31.19-.63.46-.95.36-.4.74-.7 1.15-.94h.01c.43-.23.84-.15 1.12.18a13.52 13.52 0 0 1 1.54 2.15c.29.51.1 1.03-.17 1.25l-.56.45c-.29.22-.25.65-.25.65s.83 3.16 3.95 3.96"/></symbol><symbol viewBox="0 0 24 24" id="vk" xmlns="http://www.w3.org/2000/svg"><path d="M11.701 18.771h1.437s.433-.047.654-.284c.21-.221.21-.63.21-.63s-.031-1.927.869-2.21c.887-.281 2.012 1.86 3.211 2.683.916.629 1.605.494 1.605.494l3.211-.044s1.682-.105.887-1.426c-.061-.105-.451-.975-2.371-2.76-2.012-1.861-1.742-1.561.676-4.787 1.469-1.965 2.07-3.166 1.875-3.676-.166-.48-1.26-.361-1.26-.361l-3.602.031s-.27-.031-.465.09c-.195.119-.314.391-.314.391s-.572 1.529-1.336 2.82c-1.623 2.729-2.268 2.879-2.523 2.699-.604-.391-.449-1.58-.449-2.432 0-2.641.404-3.75-.781-4.035-.39-.091-.681-.15-1.685-.166-1.29-.014-2.378.01-2.995.311-.405.203-.72.652-.539.675.24.03.779.146 1.064.537.375.506.359 1.636.359 1.636s.211 3.116-.494 3.503c-.495.262-1.155-.28-2.595-2.756-.735-1.26-1.291-2.67-1.291-2.67s-.105-.256-.299-.406c-.227-.165-.557-.225-.557-.225l-3.435.03s-.51.016-.689.24c-.166.195-.016.615-.016.615s2.686 6.287 5.732 9.453c2.79 2.902 5.956 2.715 5.956 2.715l-.05-.055z"/></symbol><symbol viewBox="0 0 24 24" id="whatsapp" xmlns="http://www.w3.org/2000/svg"><path d="M17.498 14.382c-.301-.15-1.767-.867-2.04-.966-.273-.101-.473-.15-.673.15-.197.295-.771.964-.944 1.162-.175.195-.349.21-.646.075-.3-.15-1.263-.465-2.403-1.485-.888-.795-1.484-1.77-1.66-2.07-.174-.3-.019-.465.13-.615.136-.135.301-.345.451-.523.146-.181.194-.301.297-.496.1-.21.049-.375-.025-.524-.075-.15-.672-1.62-.922-2.206-.24-.584-.487-.51-.672-.51-.172-.015-.371-.015-.571-.015-.2 0-.523.074-.797.359-.273.3-1.045 1.02-1.045 2.475s1.07 2.865 1.219 3.075c.149.195 2.105 3.195 5.1 4.485.714.3 1.27.48 1.704.629.714.227 1.365.195 1.88.121.574-.091 1.767-.721 2.016-1.426.255-.705.255-1.29.18-1.425-.074-.135-.27-.21-.57-.345m-5.446 7.443h-.016c-1.77 0-3.524-.48-5.055-1.38l-.36-.214-3.75.975 1.005-3.645-.239-.375a9.869 9.869 0 0 1-1.516-5.26c0-5.445 4.455-9.885 9.942-9.885a9.865 9.865 0 0 1 7.021 2.91 9.788 9.788 0 0 1 2.909 6.99c-.004 5.444-4.46 9.885-9.935 9.885M20.52 3.449C18.24 1.245 15.24 0 12.045 0 5.463 0 .104 5.334.101 11.893c0 2.096.549 4.14 1.595 5.945L0 24l6.335-1.652a12.062 12.062 0 0 0 5.71 1.447h.006c6.585 0 11.946-5.336 11.949-11.896 0-3.176-1.24-6.165-3.495-8.411"/></symbol><symbol viewBox="0 0 24 24" id="youtube" xmlns="http://www.w3.org/2000/svg"><path class="sa" d="M23.495 6.205a3.007 3.007 0 0 0-2.088-2.088c-1.87-.501-9.396-.501-9.396-.501s-7.507-.01-9.396.501A3.007 3.007 0 0 0 .527 6.205a31.247 31.247 0 0 0-.522 5.805 31.247 31.247 0 0 0 .522 5.783 3.007 3.007 0 0 0 2.088 2.088c1.868.502 9.396.502 9.396.502s7.506 0 9.396-.502a3.007 3.007 0 0 0 2.088-2.088 31.247 31.247 0 0 0 .5-5.783 31.247 31.247 0 0 0-.5-5.805zM9.609 15.601V8.408l6.264 3.602z"/></symbol></svg>